<svg width="100" height="103" viewBox="0 0 100 103" fill="none" xmlns="http://www.w3.org/2000/svg">
<g style="mix-blend-mode:overlay">
<path d="M38.5731 99.6983C39.3263 100.872 36.6365 99.9716 38.3543 101.761C37.9698 101.853 37.5747 101.946 37.1835 102.034C37.1268 101.406 37.0691 100.779 37.0151 100.15C37.5345 100.001 38.0592 99.8496 38.5733 99.6952C38.5732 99.6962 38.5732 99.6972 38.5731 99.6983ZM39.6786 91.9385C39.1455 93.6919 37.6844 94.0808 39.1344 95.8085C39.2914 95.2059 39.4513 94.6035 39.6041 94.0004C40.1073 94.5012 40.6234 95.0001 41.1343 95.494C41.3364 95.2701 41.538 95.0455 41.7388 94.8236C41.9376 95.8934 42.1382 96.9657 42.3446 98.0375C42.1314 97.8741 41.9159 97.7075 41.7038 97.5434C40.8012 98.3679 40.014 98.5684 38.8119 98.6619C38.9027 98.9184 38.9945 99.1727 39.0865 99.429C38.4995 98.9695 37.9201 98.5061 37.3419 98.0401C37.8956 97.6569 38.5061 97.2268 39.0081 96.8636C38.338 95.1619 36.9349 95.9983 36.1928 96.2886C35.1809 96.685 35.4675 95.914 34.714 96.1814C34.5925 96.2226 34.5236 96.8389 34.2907 96.8281C33.1166 96.7789 30.8397 96.1667 32.3528 94.8923C34.2732 95.3007 35.9537 94.2692 37.7388 94.8122C37.3694 93.1112 38.361 92.6109 39.6786 91.9385ZM25.6882 62.9559C26.4627 63.5664 26.0691 64.6994 25.468 65.4329C25.4679 65.4338 25.4679 65.4347 25.4678 65.4356C25.3351 65.6001 24.2373 65.9412 24.3097 65.3765C24.4314 64.4773 26.1535 64.1349 25.0307 63.5806C25.258 63.3772 25.4618 63.1746 25.6882 62.9559ZM25.7244 60.9636C26.1837 60.4198 27.438 60.7933 27.0423 61.4543C27.0433 61.4543 27.0443 61.4544 27.0453 61.4545C26.8803 61.7343 25.9096 61.1002 26.8624 62.2099C26.0503 62.3742 25.3112 62.5328 24.526 62.6957C24.5295 62.4392 24.5242 62.2008 24.5326 61.9263C25.8306 62.1996 25.2703 61.4887 25.7244 60.9636ZM26.0676 88.8821C25.1626 88.8543 24.9627 89.0669 24.5694 89.4856C24.4834 93.2714 27.9159 96.3314 31.6298 97.0705C31.7371 97.2125 31.8611 97.376 31.9972 97.5867C31.856 97.5614 31.7154 97.5356 31.5757 97.5094C27.6579 96.7297 24.037 93.5018 24.1278 89.5082C24.1337 89.0214 24.1444 88.539 24.1571 88.0587C24.7936 88.3395 25.4288 88.6129 26.0676 88.8821ZM45.2903 96.5974C45.2912 96.5975 45.292 96.5975 45.2929 96.5975C45.4897 96.4161 45.6862 96.2339 45.8788 96.0545C45.9832 96.4788 46.0867 96.9011 46.1919 97.3252C46.8813 96.9441 47.567 96.5602 48.2463 96.171C48.1481 97.4585 46.9368 97.2304 46.2429 98.1153C45.2528 97.7057 44.7891 96.9435 44.7559 95.8507C44.9328 96.0988 45.1089 96.3497 45.2903 96.5974ZM38.8402 7.37353C39.0772 7.02458 39.282 6.67309 39.5039 6.32139C39.2293 6.15186 38.9592 6.01916 38.6834 5.81959C37.8968 7.33935 37.8765 5.96748 36.9258 5.99587C34.0925 6.02277 34.2717 8.47924 32.5145 4.52526C34.4133 5.09557 33.9822 3.30465 35.2551 2.20994C35.3731 3.21028 33.8974 5.21377 34.6278 5.77991C36.1934 4.95756 37.5938 4.09875 39.2039 3.4849C39.165 3.31549 39.1228 3.14532 39.0817 2.97572C38.8234 3.07331 38.5794 3.17029 38.3302 3.26461C38.6146 2.82745 38.8854 2.39157 39.1753 1.94525C38.8002 2.95603 39.6822 2.41136 39.5388 3.58109C39.4719 4.10247 39.0655 4.81683 38.7992 5.30634C39.4073 5.60053 40.0364 5.86194 40.6741 6.12946C40.3316 6.54381 40.0195 6.95672 39.6625 7.3658C39.3816 7.3728 39.1298 7.37516 38.8451 7.37828C38.8435 7.3767 38.8418 7.37512 38.8402 7.37353ZM73.4893 76.1284C72.2729 75.2902 72.0706 73.7835 73.423 72.9812C73.4447 74.0341 73.4681 75.075 73.4893 76.1284ZM44.7162 94.949C44.8067 95.1584 44.8945 95.3653 44.9854 95.5745C44.5499 95.9459 44.1071 96.3133 43.6663 96.6822C43.6032 96.0824 43.5388 95.4825 43.4744 94.8852C43.8873 94.9067 44.3037 94.9298 44.7162 94.949ZM27.0701 74.4923C27.0947 74.7812 27.074 74.8064 26.9726 75.1704C26.9732 75.17 26.9737 75.1696 26.9742 75.1692C26.9369 75.3069 26.529 76.5359 26.076 76.3767C26.098 75.7548 26.1372 75.0999 26.1612 74.5007C26.4643 74.4948 26.7643 74.5028 27.0701 74.4923ZM26.5053 81.942C26.5043 81.9428 26.5033 81.9437 26.5022 81.9446C26.4275 82.1848 26.2813 82.4044 26.2517 82.6547C25.5423 81.7499 26.8447 81.6341 26.4995 80.8243C26.1533 80.0137 25.4562 79.4853 27.2613 78.8879C27.5172 79.1496 27.8877 79.4306 28.1885 79.698C27.4377 80.7927 28.0989 81.1261 28.7803 82.0406C28.0203 82.0078 27.2654 81.9754 26.5053 81.942ZM26.2266 1.70407C25.8693 2.52885 25.8431 1.64028 25.8261 1.6259C25.8267 1.62499 25.8273 1.62407 25.8279 1.62316C24.037 2.05207 26.1521 1.20734 24.6595 0.71097C24.942 0.554149 25.2172 0.381473 25.4866 0.215746C25.7288 0.707577 25.9732 1.25351 26.2266 1.70407ZM15.8259 43.899C15.8725 44.1514 15.9223 44.404 15.969 44.6564C15.6648 44.6743 15.4296 44.7861 15.257 44.905C15.5563 45.0864 15.7179 45.3092 15.3034 44.7878C15.4063 44.5557 15.4145 44.3942 15.1745 44.2518C15.3768 44.134 15.6075 44.014 15.8256 43.896C15.8257 43.897 15.8258 43.898 15.8259 43.899ZM29.0972 69.3014C29.5424 70.5023 29.731 71.3533 28.9229 72.4663C28.9218 72.4671 28.9208 72.468 28.9198 72.4688C28.8702 72.531 28.3432 72.2085 28.2059 72.2875C28.2796 72.5168 28.3962 72.7576 28.4856 72.9955C28.0557 73.0159 27.626 73.035 27.1988 73.0557C27.3377 72.4023 27.4788 71.7284 27.6209 71.0822C27.367 71.1701 27.1153 71.2613 26.8614 71.3508C26.7494 70.789 26.6395 70.213 26.5305 69.6415C27.2263 69.8702 27.9229 70.0849 28.622 70.3007C28.7805 69.9779 28.9349 69.6304 29.0972 69.3014ZM4.23575 32.6782C3.93704 32.84 3.50998 32.4318 3.23815 32.7067C2.96875 32.9846 3.43477 33.585 2.66203 33.3802C2.5954 32.9668 2.51923 32.5249 2.45834 32.0882C0.884107 33.3092 2.0675 34.7323 0.313901 34.6017C0.873523 33.3812 0.758672 32.3014 0.459088 30.8837C1.82648 31.1495 2.8705 32.5489 4.26585 31.9212C4.25274 32.1725 4.24886 32.4355 4.23301 32.6752C4.23393 32.6762 4.23484 32.6772 4.23575 32.6782ZM60.9489 77.2471C61.695 77.3076 62.4828 76.6603 63.1982 77.3672C63.3541 77.5476 64.3144 80.0136 64.3873 80.3467C64.583 81.4822 63.883 81.7635 64.789 82.3657C64.5268 82.4215 64.2808 82.5069 64.0268 82.5672C64.191 83.3246 64.359 84.0792 64.5294 84.8327C64.8502 84.6635 65.1699 84.488 65.4878 84.3055C65.5529 84.5538 65.6185 84.8026 65.6845 85.0507C64.4369 85.2866 65.3553 86.1239 64.8276 87.146C65.5283 87.507 66.2603 87.8414 67.0081 88.1587C66.6218 88.1828 66.1708 88.2284 65.8289 88.2218C66.0153 89.5228 66.7692 89.0611 66.9561 89.2684C68.0304 90.4817 63.8524 90.5245 63.6606 92.3977C64.3807 92.5381 65.1458 92.6456 65.8945 92.7358C65.7282 93.0014 65.5515 93.2671 65.3768 93.5304C63.9016 92.6837 62.3325 92.2711 61.0709 91.7773L61.2431 91.754C60.6665 91.7026 60.388 91.5641 59.9931 91.4349C59.8443 91.4991 59.6577 91.5659 59.5124 91.6254C59.5907 92.2143 59.6616 92.8013 59.7512 93.3894C59.5102 93.4731 59.2381 93.5557 59.0032 93.6358C59.6461 91.6524 58.6246 91.7333 57.4209 90.5758C58.0201 89.8738 58.8105 90.2573 58.7013 88.9831C56.6059 90.0533 54.0814 88.6916 52.0231 89.8026C51.4996 90.0765 51.5099 91.7261 50.2865 91.5678C50.3289 91.387 50.3379 91.06 50.3659 90.8222C48.2593 91.5966 46.954 92.0483 44.7858 91.1854C44.8957 91.7809 45.0044 92.3787 45.1159 92.9741C45.5936 92.6916 46.0667 92.4029 46.5379 92.1176C46.8367 93.1013 46.3567 93.5258 47.7567 93.5391C48.9024 93.5482 48.2257 93.1063 48.54 92.8209C48.9702 92.4307 49.326 93.2127 49.7851 92.7743C50.1382 92.4378 49.7699 91.6291 50.672 91.8384C50.3057 92.882 49.9217 93.9588 49.5371 95.0137C49.3166 94.7763 49.097 94.5349 48.875 94.2944C49.1054 94.0175 49.3298 93.744 49.5559 93.4666C48.7611 93.9614 47.9986 94.4249 47.1619 94.93C47.4566 93.4241 46.5965 93.9754 46.1283 94.1432C45.4017 94.4059 46.043 93.3805 45.5669 93.5426C45.0897 93.7068 44.549 94.8553 43.6969 94.5795C44.1772 93.9219 43.5728 93.2992 43.7137 92.6825C43.8546 92.0662 44.7535 91.9562 43.9147 91.2524C42.2429 91.7115 43.9632 94.1359 42.8217 94.4793C41.437 94.8886 41.2866 91.0205 41.7212 90.2108C42.0618 89.5735 43.1298 89.7455 43.4658 89.1065C41.5958 87.8668 41.4847 90.1706 41.1319 90.6095C39.8503 92.1981 40.8736 87.8465 39.3806 89.3596C39.4532 88.5398 39.5159 87.8024 39.586 87.0161C39.337 87.1525 39.1659 87.3424 38.8699 87.4439C39.6322 89.094 38.9357 88.9851 38.5711 88.965C37.9942 88.9343 38.8373 89.7699 38.6719 89.9617C38.2246 90.4761 37.5866 90.1877 37.9415 90.9187C37.782 90.5791 37.6125 90.2374 37.4495 89.8993C36.7587 90.264 34.8583 93.5547 36.462 92.9854C36.2268 94.247 35.7579 93.5959 35.3862 93.3695C35.0163 93.1434 34.9441 93.9524 34.6096 93.7715C33.2824 93.0422 34.3358 91.7472 34.6394 90.6819C32.8853 91.2158 34.3143 91.8571 32.2432 92.0947C30.8404 91.8155 29.5438 90.6597 29.5763 89.2297C29.541 89.1073 29.5054 88.9722 29.4695 88.823C28.5703 88.6047 27.6844 89.8856 27.1229 88.8805C28.6555 88.6182 29.7218 87.8273 30.2025 86.3857C29.8452 86.2542 29.4851 86.1234 29.1283 85.9876C30.541 85.1761 32.0199 85.5805 30.2527 84.1437C33.5015 84.9138 31.4166 84.3766 32.7508 83.1229C33.0201 82.8703 33.6872 83.4675 34.0326 83.1155C34.1883 82.958 33.685 82.5598 34.0854 82.1763C34.2826 81.9854 35.5549 81.1327 34.9819 80.4997C33.3946 80.9066 32.0964 79.6672 30.762 80.6547C31.1457 78.7515 30.4563 77.4063 32.5097 79.6132C33.0038 79.1543 33.4979 78.6942 33.9924 78.2397C33.6326 77.8928 33.2767 77.5373 32.9206 77.1834C34.2143 77.1939 34.5745 77.2661 34.4097 75.9358C34.6878 76.5231 34.9698 77.1067 35.2504 77.6908C35.5103 77.7221 35.7777 77.8137 36.0316 77.8066C35.5681 77.0919 35.4512 75.0916 35.1229 74.5795C34.7971 74.079 34.6676 75.019 34.3392 74.8635C32.8022 74.142 32.789 73.895 32.9836 73.6529C33.1312 73.4642 33.3981 73.282 33.204 72.9221C32.9378 72.4316 32.6033 73.5791 32.4913 73.3175C32.0808 72.3468 33.5563 71.9347 33.6016 71.0948C32.7619 71.3764 31.9103 71.6365 31.0637 71.9126C31.1338 71.0292 31.1751 70.0169 30.9403 69.1743C30.8486 68.8483 30.2223 69.068 30.183 69.0139C29.9808 68.7322 29.6892 67.645 29.6925 67.5204C29.7255 66.6622 30.5816 66.6636 30.6696 65.8328C30.7249 66.1737 30.7759 66.4712 30.8303 66.8052C32.2084 67.022 33.5872 67.2249 34.9686 67.4304C35.1055 66.6255 35.2439 65.8248 35.3895 65.0207C34.8941 65.5916 34.4036 66.1622 33.9132 66.7305C32.8379 65.7528 31.7663 64.7544 30.7028 63.7399C31.4194 63.2922 32.1374 62.8493 32.8578 62.4062C32.77 61.0771 29.9684 61.1179 32.457 60.6825C32.2822 60.2738 32.1093 59.8647 31.9407 59.4549C32.2835 59.542 32.6267 59.6322 32.9699 59.7156C32.7978 59.2204 32.6282 58.7403 32.4587 58.2422C31.179 58.6212 29.8382 58.9864 28.5979 59.3915C28.4148 58.4125 29.4639 58.4892 29.7371 58.376C30.4628 58.0649 29.606 57.24 30.2759 57.0071C30.5049 56.9304 31.0981 57.9173 31.9227 57.6822C32.0819 57.6328 35.1202 56.7344 34.5326 55.8947C34.0037 55.8519 33.3507 55.8414 32.7737 55.8106C32.5658 54.7491 35.3712 54.505 36.1299 54.7177C35.6478 54.1007 35.6718 53.2661 34.8331 53.0867C34.8332 53.0793 34.8332 53.0719 34.8332 53.0645C34.8324 52.8089 34.8423 52.54 34.8569 52.2702C36.8693 52.7972 36.6414 51.7056 34.9087 51.322C34.7881 51.784 34.6711 52.2606 34.5799 52.7262C32.4734 52.1539 30.9113 53.435 33.4076 50.5495C34.6259 50.1536 33.0763 51.5768 33.9954 51.2342C34.6185 50.4864 34.3609 49.6474 35.2845 49.0169C36.4352 48.2329 37.1493 49.6113 36.3327 47.095C32.2817 51.532 34.4859 45.9568 33.69 43.6735C36.7435 43.4623 38.3553 41.0397 36.2022 38.0288C35.5802 38.6965 36.2766 39.4279 36.0792 40.0259C35.8786 40.5812 35.297 40.1286 34.9716 40.7648C34.6497 41.39 34.092 42.5858 33.4338 43.1046C33.0222 42.5088 31.779 40.5714 33.2161 41.8676C34.0235 40.8077 34.9222 40.0726 34.4942 38.6912C33.1124 38.979 32.4388 39.4291 32.1397 39.2407C33.0418 38.3697 33.5954 37.5031 33.7492 36.3165C33.8342 35.7177 33.5722 35.0346 34.1936 34.564C34.3571 34.6521 34.493 34.75 34.606 34.8499C35.4281 36.0609 33.773 37.0519 33.5926 38.0158C33.5785 38.0654 33.7878 38.1371 34.0104 38.2688C34.234 38.3968 34.4631 38.5888 34.4942 38.6912C35.5964 37.1144 35.2605 35.8485 37.628 35.5525C36.6449 34.53 35.9697 33.8412 35.3521 34.5667C35.3637 34.2561 35.3545 33.9385 35.3259 33.6177C35.1817 33.355 34.9979 33.0947 34.779 32.8488C33.5722 32.4166 32.5741 32.5694 31.988 32.658C32.5491 33.3066 32.291 33.4763 31.9602 33.5819C31.6181 33.6927 31.3177 33.7171 31.3061 34.0516C31.2911 34.4176 31.3936 34.9062 31.4015 35.2938C31.3646 35.6246 31.1961 35.8892 30.5937 35.9667C30.922 36.163 31.2375 36.3376 31.546 36.5155C31.6733 36.598 31.8182 36.6697 31.9714 36.7378C31.8548 36.8231 31.7339 36.9056 31.6008 36.9793C30.9133 37.3784 30.2238 37.7773 29.535 38.1734C30.2371 38.9838 31.6966 40.1363 31.8006 41.2959C31.351 40.9067 30.0819 41.831 29.9354 41.8795C29.3743 42.0636 29.6041 41.2983 29.5585 41.2853C28.6149 41.0342 27.8984 41.3664 27.4325 40.2995C26.8111 40.8745 26.2681 40.6474 25.5534 40.7557C25.1602 40.8152 25.3271 41.6186 25.0788 41.4902C23.4272 40.6326 24.776 39.4207 22.0335 41.7468C22.4565 42.2726 22.8726 42.8123 23.295 43.3433C22.9835 43.5939 22.6774 43.845 22.364 44.0958C22.1292 44.0177 21.8961 43.9386 21.6606 43.8606C21.5294 42.6336 21.3988 41.4039 21.2676 40.1769C21.0168 40.137 20.7599 40.0998 20.509 40.06C20.9157 39.8924 21.3259 39.7247 21.7325 39.5573C21.747 39.3372 21.7589 39.1173 21.7735 38.8973C21.111 38.6323 20.4514 38.364 19.7868 38.0969C19.8223 38.5248 19.8583 38.9558 19.8938 39.3838C18.4189 38.9468 18.3406 38.5895 17.1383 39.9157C16.1104 40.0197 15.4703 41.9019 15.0055 42.722C14.9963 42.7131 14.9871 42.7042 14.978 42.6953C14.9606 42.4645 14.8616 42.2426 14.7159 42.0432C14.7509 42.4034 14.7995 42.7605 14.8564 43.118C14.5864 42.6844 14.2249 42.2904 13.8308 41.9222C14.1332 43.0241 14.3825 43.2811 14.9841 43.484C15.1449 44.1697 15.0309 44.4147 14.5881 44.5789C14.1617 44.7346 13.4386 44.7955 12.9489 44.7711C12.2018 44.7349 12.3507 43.3647 12.2097 43.2744C11.7844 42.9501 10.9433 43.7943 10.6347 43.8181C9.47166 43.8818 8.54709 44.3183 6.86449 43.8425C6.50339 43.7557 5.90194 42.7359 5.89418 42.6796C5.62778 42.4716 5.24603 42.0032 5.07032 41.6353C4.68042 41.098 4.69984 40.6576 4.67935 40.5901C4.6055 40.0374 4.69021 39.792 4.71813 39.5767C4.75518 39.3695 4.78221 39.2239 4.79449 39.1007C4.8197 38.8578 4.79033 38.7122 4.7285 38.6101C4.27167 37.5739 2.13813 39.4157 2.64716 36.5821C2.21564 36.6577 1.78766 36.724 1.35633 36.7956C1.3528 36.5205 1.35038 36.24 1.34676 35.9582C1.7283 35.6307 2.33641 36.1144 1.87475 35.3619C2.39196 35.4501 2.90943 35.5383 3.42394 35.6282C3.16744 35.2968 2.91277 34.9749 2.65883 34.6289C4.50244 34.2756 5.09852 32.472 7.20419 32.8495C7.91569 32.9789 8.53117 34.2853 9.36623 33.7123C9.5716 33.2068 8.67453 33.4692 8.65211 33.25C8.51575 31.6622 9.72037 31.9337 9.49136 31.2869C8.99377 31.1093 8.48846 30.9193 7.9892 30.7275C8.18092 30.5179 8.37537 30.312 8.57249 30.1128C8.24141 29.9892 7.91139 29.8597 7.58201 29.7302C7.51045 29.9507 7.43697 30.2012 7.37566 30.4064C6.03638 29.9066 6.24607 26.8446 7.04843 28.2586C7.36902 28.8157 7.00671 29.5038 8.6701 29.4183C8.63821 29.0404 8.62322 28.6367 8.62932 28.2299C8.64557 27.8327 8.66014 27.4325 8.66856 27.0462C9.00393 27.1271 9.33948 27.2094 9.67502 27.2896C9.78201 26.2017 8.17803 26.7231 7.4768 26.4932C7.52848 26.2604 7.58215 26.0259 7.63139 25.7929C7.97964 25.7936 8.34157 25.8023 8.68176 25.7925C8.17595 25.6295 7.03467 25.1528 7.66747 24.6069C8.07757 24.2503 9.17165 25.3103 9.22889 24.4108C8.41131 24.2583 7.36401 24.2814 7.35061 23.2982C8.21005 23.4271 9.00956 23.4972 9.90795 23.6491C9.40137 22.2633 10.8346 22.0062 10.1649 20.3935C10.0541 20.1332 9.84342 19.8346 9.64749 19.5384C9.05342 18.749 8.37988 18.3742 10.7254 17.402C10.6645 16.688 9.89839 17.1024 9.67192 16.9486C8.59626 16.2724 9.94225 15.2098 9.99232 15.0225C10.3028 13.8384 9.65834 13.4866 10.2668 12.5703C9.66205 12.7063 9.08787 12.8228 8.49892 12.9573C9.55004 13.6079 9.5864 13.9571 9.67963 15.1174C9.46277 14.7784 9.24632 14.4418 9.0396 14.0969C8.56458 14.2703 8.09038 14.4467 7.61923 14.6234C10.4252 17.5842 7.21208 17.698 5.77489 14.7687C6.61645 14.2815 7.46295 13.8043 8.33087 13.3785C6.66861 11.8729 7.69451 10.5344 8.68436 8.82469C8.78206 8.63035 8.79165 7.55752 9.08107 7.21186C9.07377 7.2149 9.06647 7.21796 9.05918 7.22103C8.57601 6.43985 8.0252 6.45682 7.36967 6.0242C7.4945 5.71511 7.61958 5.43348 7.77749 5.14073C8.68235 5.1234 8.80779 5.61201 9.64849 4.84235C9.18893 4.4335 8.70931 4.04245 8.20596 3.67521C9.11724 2.99207 9.92699 2.97161 10.6797 2.71465C10.9413 2.62974 11.1961 2.51579 11.4578 2.3371C11.357 2.61546 11.2657 2.8948 11.1843 3.17293C13.6109 2.88751 12.9201 6.82257 13.9185 4.71918C14.0853 4.99269 14.2433 5.2726 14.3949 5.55192C13.8457 5.74818 13.3151 5.98545 12.814 6.25999C12.9591 6.66693 13.1042 7.07197 13.2537 7.47725C13.7082 7.16081 14.1973 6.87368 14.7149 6.63346C14.3757 7.00037 14.0772 7.38496 13.8172 7.77966C14.4447 7.78445 15.048 7.85769 15.6158 7.99065C14.7669 6.51064 15.5615 6.19657 15.2136 4.6594C16.6957 5.7527 17.3025 7.34095 18.8934 6.90628C18.9992 6.8885 19.1094 6.86454 19.2246 6.83403C19.6602 6.71855 19.7296 5.5988 20.4864 7.18095C20.6659 5.41956 22.2569 4.99121 22.5003 3.33502C22.1012 3.31311 21.6907 3.25618 21.2897 3.25222C21.5702 3.92289 21.232 5.47488 20.4693 5.76112C20.0222 5.92869 19.588 5.73068 19.2093 5.63696C18.7761 5.52966 18.4173 5.59327 18.2898 6.53669C18.0143 6.40642 17.7421 6.32422 17.4564 6.23211C17.6095 5.8056 17.7769 5.3796 17.9604 4.96066C16.9551 5.54236 16.4855 5.34855 15.927 4.27561C17.0973 3.94616 18.3499 3.78758 19.6535 3.85151C19.6551 3.85155 19.6567 3.85159 19.6583 3.85164C19.657 3.85059 19.6556 3.84954 19.6543 3.8485C19.4901 3.73113 19.3201 3.61667 19.1471 3.50944C19.7194 3.07493 19.8748 2.57801 20.0686 2.18328C20.2615 1.75411 20.5166 1.45609 21.3672 1.54841C21.2275 2.04393 21.0897 2.54031 20.9495 3.03838C21.8748 1.85765 23.3654 2.25948 23.2907 0.602059C23.6106 1.18856 23.6241 1.50936 24.0803 0.745057C24.904 2.19741 25.3096 3.83728 24.4968 5.5179C25.0045 5.33359 25.5043 5.14029 25.9909 4.93672C25.8348 4.40064 25.6879 3.86599 25.5502 3.3286C26.2716 3.51489 26.9916 3.67835 27.7069 3.8123C27.5646 5.28433 26.2215 4.01872 26.4284 5.38602C26.4729 5.66246 26.9767 5.17532 27.059 5.33819C27.9614 7.10399 26.3321 5.67453 26.4671 6.94002C27.7673 7.44154 27.0975 8.61299 27.9134 8.54152C28.1116 8.51002 28.4375 8.35813 29.0929 8.09533C29.0512 8.52214 29.0089 8.95794 28.9591 9.38055C29.741 9.61222 29.9493 8.68272 30.7138 8.69283C31.1843 8.69758 31.4155 10.48 32.1835 9.46582C32.3072 9.26938 31.9019 7.11436 33.6022 7.51355C34.9261 7.78992 34.1735 9.1423 34.8765 9.75177C35.624 10.3678 37.5027 8.48476 37.9041 10.7842C37.5023 10.4618 36.9947 10.2674 36.5669 9.98539C36.3589 10.4157 36.1267 10.8383 35.9046 11.2626C37.0055 10.7851 38.0575 11.5129 38.7959 10.4758C40.1498 12.1473 41.7098 10.6266 41.2818 8.79747C40.8438 9.06186 41.3269 9.86143 40.7083 9.35066C40.646 8.92344 40.5817 8.49821 40.5224 8.07082C41.5497 8.13002 42.2869 8.10274 41.8186 9.41065C41.9885 9.44009 42.1387 9.46919 42.3029 9.49775C42.3175 8.55564 42.328 7.61008 42.3409 6.66797C42.5267 6.55887 42.7157 6.44993 42.9062 6.33947C43.1191 6.5415 43.3281 6.74533 43.5485 6.9483C43.3114 8.44439 42.794 8.51543 44.483 9.29032C44.468 8.77564 44.4552 8.26291 44.44 7.74824C45.8386 8.34409 45.9489 9.59006 47.6781 9.43542C46.463 11.306 45.5333 8.17428 45.7265 11.7559C45.3821 11.537 45.0078 11.3148 44.6644 11.0927C44.6336 11.6144 44.6027 12.1368 44.5732 12.6583C46.0824 12.3832 48.1823 9.97777 49.6523 10.1833C50.0023 10.2334 50.3146 10.4351 50.5819 10.8529C50.705 10.5655 50.8311 10.3141 50.9541 10.006C52.2329 11.2778 52.5007 8.17368 53.8214 9.84974C53.9556 10.0269 53.9219 12.9204 55.4279 12.7121C55.3649 12.3403 55.3024 11.7116 55.2393 11.2415C55.5832 11.4488 55.9287 11.6675 56.2664 11.8824C56.3041 11.5329 56.345 11.1833 56.3831 10.8312C55.8131 10.731 55.2417 10.6322 54.6658 10.5381C55.1269 10.3862 55.5944 10.2352 56.0539 10.0872C55.4076 9.56048 55.1238 9.57455 55.4366 8.64384C55.9713 8.55405 56.5042 8.4636 57.0396 8.38028C57.0822 8.1451 57.1239 7.90729 57.1683 7.6721C56.8714 6.99336 56.5638 6.3315 56.2577 5.64472C57.7178 6.12557 58.9885 6.10591 60.1046 7.45723C60.2928 7.68749 59.6457 8.589 60.8967 7.77432C60.9132 8.25285 60.9438 8.64157 60.9611 9.08401C62.4525 7.77378 63.1124 8.18439 64.363 9.38961C63.5961 8.33651 64.3182 9.05069 64.667 8.63686C64.915 8.34683 64.2198 8.25626 64.3531 7.92991C64.4532 7.58589 65.8374 6.45552 64.9367 6.09051C62.3979 8.58387 62.2241 5.20322 59.5881 6.59093C59.9666 6.2132 60.3631 5.83818 60.7676 5.46965C60.5808 5.21824 60.4037 4.99114 60.1986 4.72653C61.6733 5.28631 60.953 4.92357 61.582 4.49023C62.2138 4.05982 63.426 3.7419 64.3525 3.74547C64.6383 3.7471 64.2554 4.33676 64.878 4.4965C65.2449 4.57652 66.93 4.02198 66.9328 5.25619C66.7611 5.88054 64.9227 7.01379 66.1438 7.82534C66.2523 7.91767 66.4008 8.00387 66.5966 8.07892C66.6728 8.75807 66.1052 8.47147 65.9001 8.39989C65.8609 8.38675 65.8336 8.38223 65.8256 8.39335C65.7169 8.55355 65.6832 8.73201 65.6866 8.90337C65.7206 9.52202 66.4902 10.1094 67.0872 9.76594C67.1464 9.72644 66.9289 8.95319 67.4759 8.8593C68.7569 8.61557 69.1902 9.50973 69.6641 10.7085C70.057 9.56448 71.3821 8.40217 72.5024 9.21179C72.6679 8.90033 72.8344 8.58619 73.0059 8.2744C72.75 8.3855 72.5012 8.49881 72.2561 8.61755C72.1064 8.34655 71.9267 8.1307 71.791 7.82681C73.12 7.89489 73.8358 6.38211 74.7589 6.05898C78.175 5.18009 74.7609 8.55606 74.1664 9.13393C73.9997 8.73771 73.841 8.31461 73.6605 7.91143C73.5562 8.32145 73.4496 8.73413 73.3385 9.14467C76.4558 10.3728 72.8427 11.8522 73.7779 13.1441C73.8603 13.0336 73.9421 12.932 74.0233 12.8393C75.2505 11.5604 76.224 11.9694 76.8711 13.6795C77.0182 13.743 77.1627 13.8138 77.3106 13.8747C77.4718 13.6173 77.6816 13.2052 77.8109 13.0474C79.5252 13.5267 78.3222 16.508 78.3229 16.8489C78.3277 18.3659 79.6784 16.984 79.8739 17.0719C80.6805 17.4376 80.4968 18.2798 81.3889 18.3836C82.3517 18.5011 82.145 17.6483 82.6686 17.2984C82.7483 17.2463 82.8368 17.2149 82.9316 17.1968C83.3372 17.1197 83.8518 17.2831 84.2567 17.0862C83.9569 17.3508 83.6501 17.6027 83.3513 17.8699C83.9023 18.8071 84.3005 19.6446 85.1598 20.3231C87.672 18.594 86.0923 23.1536 87.7378 19.6817C86.9939 18.914 86.7316 18.2402 86.7682 17.1204C87.414 17.3721 88.0573 17.6283 88.7007 17.8804C88.6489 18.3411 88.5536 18.7623 88.529 19.2489C89.4287 18.7594 90.23 19.7009 90.7594 19.7169C92.7228 19.7744 93.247 18.7386 93.5714 19.8888C93.5924 20.1524 93.6178 20.5716 93.7454 21.2069C93.3811 21.126 93.0886 21.1438 92.8136 21.1894C92.0779 21.2708 91.5219 21.6357 90.7193 21.0097C90.5228 21.9252 91.242 22.1413 90.2934 22.8101C91.5034 23.2541 91.6911 22.4222 92.3837 21.9271C92.4515 21.8792 92.5234 21.8336 92.6005 21.7915C93.34 21.3871 94.1236 21.6482 94.4192 20.7503C94.3113 21.2636 94.2 21.7573 94.1099 22.275C94.9346 22.5695 95.7857 22.8056 96.6385 23.0567C96.1198 23.4652 95.6102 23.8812 95.0857 24.2853C95.3067 24.565 95.5257 24.8412 95.7374 25.1172C96.6072 24.767 97.5127 25.0276 98.0711 25.3815C98.3482 25.5517 98.4847 25.7469 98.4733 25.7465C98.4563 25.7482 98.4693 25.5577 98.6315 25.6238C98.6658 25.2708 98.8457 24.9946 98.9832 24.8539C99.1096 24.7229 99.2184 24.6601 99.2807 24.6275C99.4232 24.556 99.4751 24.5548 99.5179 24.5492C99.5978 24.5444 99.6117 24.566 99.6214 24.5865C99.6356 24.63 99.6106 24.6856 99.5889 24.7462C99.5415 24.8681 99.4893 25.0156 99.4631 25.1927C99.408 25.547 99.443 26.0204 99.5977 26.6532C99.1834 26.746 98.9624 26.7254 98.7545 26.6308C98.4006 26.4991 98.1432 26.1619 97.7142 25.7606C97.716 26.0875 97.7087 26.3611 97.7172 26.7235C96.9858 26.5279 96.7124 27.8095 96.0698 27.6213C95.428 27.4357 95.0455 26.3553 95.3585 28.2431C94.8725 27.7856 94.4039 27.422 93.9151 27.0115C93.7863 27.4868 93.6625 27.9574 93.5481 28.4298C93.1515 28.2924 92.7515 28.161 92.3476 28.035C92.3922 28.7944 91.4462 28.9291 90.9023 29.393C90.7654 29.5008 90.648 29.6211 90.5662 29.7644C89.6593 29.0144 88.821 26.0462 87.6712 26.9305C87.901 27.6644 88.1311 28.3959 88.3639 29.1289C88.0081 29.0575 87.6546 28.9829 87.3007 28.9059C87.2212 28.6673 87.1444 28.428 87.0653 28.1893C87.2425 28.2252 87.4176 28.2607 87.5958 28.2979C87.3532 27.922 87.1163 27.5461 86.8803 27.1677C86.5657 27.8941 86.2341 28.6202 85.8995 29.3463C86.6575 29.6547 87.4182 29.9619 88.1984 30.2525C87.5054 31.0124 86.7957 30.6018 86.2351 31.3823C85.3755 30.4969 85.4595 29.8486 85.4423 28.6694C85.2367 28.8195 85.0273 28.967 84.8218 29.1176C84.7017 27.9628 84.1603 27.3862 85.5162 27.1585C85.3486 26.861 85.1828 26.5787 85.0143 26.268C84.8075 26.3705 84.6004 26.1346 84.3867 26.316C83.7996 26.8127 83.7724 28.9044 83.9935 29.5798C84.1066 29.9337 84.5814 29.0857 84.6801 29.6024C84.9155 30.863 83.3261 30.6578 85.7335 31.3969C85.2224 32.358 84.927 31.7953 84.1143 31.7593C84.2793 32.1573 84.4409 32.5535 84.6014 32.9529C84.2106 32.8494 83.8227 32.749 83.4359 32.6525C83.3849 31.6535 82.8177 31.0776 82.3345 30.5411C81.876 30.0401 81.5383 29.5524 81.811 28.7518C81.9111 28.4845 82.0874 28.181 82.362 27.8334C82.1015 27.8695 81.8396 27.9082 81.5764 27.9501C81.1205 28.0154 80.6559 28.0742 80.1822 28.1311C80.2661 27.8754 80.3491 27.6221 80.4291 27.3669C80.7662 27.398 81.0964 27.4271 81.4247 27.4524C80.9616 27.1594 80.5007 26.8631 80.0341 26.5637C79.3144 27.286 79.1486 28.1392 78.9937 29.1838C80.2138 29.587 79.6287 28.7471 80.3708 28.3488C80.503 28.9479 80.6867 29.4822 80.7846 30.1226C80.0465 29.0071 78.9262 30.26 78.6279 30.4107C77.7184 30.8651 78.1317 29.4489 77.4673 29.6162C76.7873 29.7911 76.2725 30.7444 75.2893 29.7962C75.5449 30.4406 75.8411 31.0954 76.0983 31.6731C75.2177 32.2561 75.0971 31.4388 74.9516 31.3808C74.2049 31.0927 73.6307 31.1179 73.1715 31.3135C72.5019 31.562 72.0317 32.4965 70.8038 32.9947C71.1009 33.1288 71.3922 33.242 71.6883 33.359C70.7352 35.1894 71.5059 34.5112 72.9409 34.5258C71.7106 34.8039 71.3838 36.1759 70.764 36.7704C70.1085 37.3567 69.0376 37.135 68.5125 36.9297C68.6805 35.788 70.1654 35.8375 71.3441 35.2609C70.9925 34.6297 70.6794 34.1 70.3 33.4048C69.9513 35.0602 69.2255 34.27 68.8804 34.192C67.8699 33.9798 68.4835 35.1073 67.3604 34.1597C67.6144 34.5567 67.8231 34.8933 68.0545 35.2675C67.2912 35.5582 66.3779 36.0344 66.0795 36.8795C65.8793 37.7041 66.269 38.3004 67.0751 38.7837C65.9479 38.9131 64.8615 39.0227 63.7115 39.1662C64.5835 39.8362 63.7298 40.4407 63.9444 41.0138C64.1588 41.5807 65.0667 41.3426 65.4353 42.0111C65.503 42.1378 64.9374 42.4058 65.366 42.7087C65.7972 43.0071 68.9719 44.1019 66.2207 44.2926C66.2185 44.8765 66.1268 45.4228 66.0888 46.0043C65.9252 45.4407 65.7658 44.8924 65.6006 44.3433C64.9419 44.8272 64.2844 45.3094 63.6242 45.7911C64.2202 45.8431 64.8269 45.8957 65.415 45.9466C65.7745 46.5494 65.7348 47.0844 65.6258 47.6315C65.5091 48.1922 65.3134 48.7661 65.4387 49.4371C65.4795 49.6545 66.6514 49.1325 66.3603 50.0877C66.0685 51.0486 63.8786 51.7735 64.7374 53.3946C64.7819 53.4798 66.4668 53.9459 65.3059 54.5388C65.0428 54.6735 64.6491 54.1154 64.3043 54.4229C63.9595 54.7361 63.6817 56.0929 62.8567 56.2023C63.149 56.1864 63.4514 56.1006 63.7486 56.0584C63.8895 56.2878 64.0304 56.521 64.1686 56.7556C63.6539 56.7799 63.1385 56.8059 62.6263 56.8302C63.8303 58.1569 65.7875 58.845 65.1477 60.8254C65.8935 60.2625 66.6421 59.7099 67.3876 59.1478C66.8618 58.9969 66.3325 58.8462 65.8067 58.6987C66.0125 57.7864 66.2164 56.8655 66.4214 55.9578C65.8229 55.8092 65.2262 55.6639 64.6278 55.5167C64.7041 55.2738 64.778 55.0357 64.8542 54.7951C65.2866 54.8535 65.7167 54.9107 66.1491 54.9709C66.0404 54.4917 65.9292 54.0122 65.8201 53.5372C68.3768 54.4873 65.6186 56.2526 67.7511 56.1124C67.4212 56.3281 67.089 56.5451 66.7564 56.7627C67.7913 56.8539 67.4957 57.2912 67.336 58.0654C67.8449 57.8857 68.3468 57.6881 68.861 57.5239C68.1452 58.2801 68.2202 59.6116 67.9461 60.3889C67.8256 60.7316 67.0745 60.3923 66.9867 60.4944C66.528 61.0175 67.8397 62.008 67.7368 62.2166C67.1245 63.4632 64.6456 64.2779 66.2837 65.632C66.6842 64.2294 66.5154 64.9924 67.4224 64.4915C67.7067 64.3343 68.2962 62.521 68.038 64.7907C68.006 65.0569 66.2993 69.1758 64.9833 67.8253C65.4036 68.4879 65.889 69.0124 66.3349 69.6196C62.8751 71.1175 66.1265 70.5951 67.9164 70.1605C67.9244 70.4055 67.9429 70.6358 67.9432 70.8886C66.0617 70.3577 65.9479 73.08 66.898 74.0072C67.2139 74.3158 67.8153 73.4515 68.1005 74.1656C67.9688 74.5025 67.7983 74.8983 67.6511 75.2555C68.8409 74.7347 69.3001 75.7532 70.5107 75.7425C69.4323 76.4047 67.1458 76.8968 65.9063 76.5418C66.4084 77.089 66.9098 77.6214 67.4144 78.1729C67.7015 77.9188 67.9861 77.663 68.2732 77.4136C67.5132 79.1767 69.2442 81.4746 66.7009 81.8319C66.719 82.0718 66.7347 82.3113 66.7528 82.5428C67.1823 82.6145 67.6126 82.6831 68.0421 82.7541C67.9416 83.0491 67.8408 83.3359 67.74 83.6142C67.4674 84.3993 67.1941 85.169 66.9222 85.9403C66.6556 85.003 66.0443 84.7624 66.5407 83.7798C66.0468 84.1677 65.5501 84.5503 65.0561 84.9281C66.386 86.4102 67.26 86.6323 66.8642 88.8706C66.8461 88.9757 65.7309 90.6682 65.6222 90.7296C65.1255 90.9953 64.4039 90.5933 64.1528 90.7109C63.4491 91.0434 61.682 93.038 61.4156 92.9995C58.1452 92.5157 58.1018 85.7816 57.9337 83.9651C57.9231 83.8496 57.9126 83.7327 57.9023 83.6142C56.8116 71.5299 57.3967 59.5615 57.7131 47.7263C57.7569 45.9577 57.7907 44.2188 57.8031 42.4752C57.8094 41.6086 57.8101 40.7447 57.8045 39.8626C57.802 39.422 57.7971 38.9789 57.7938 38.4692C57.7929 38.1983 57.7887 37.9406 57.7994 37.4598C57.8074 37.2179 57.8114 36.9144 57.8723 36.3559C57.9208 35.8429 58.1273 34.7665 58.4638 33.9375C59.4058 31.381 61.5773 29.2341 63.2139 28.2551C64.8884 27.2142 66.1503 26.809 67.1302 26.4705C69.0539 25.8711 70.1468 25.4979 70.0162 25.4855C70.0442 25.4699 70.0722 25.4543 70.1002 25.4388C70.3652 25.2909 70.0238 24.9259 70.1305 24.8466C70.8093 24.3563 71.8132 24.7383 72.0712 24.6621C72.6337 24.4944 72.0715 23.9758 72.4692 23.8141C75.5729 22.606 78.0563 22.3641 79.8064 21.9005C80.6902 21.6636 81.5244 21.452 82.3098 21.2286C82.5169 21.1699 82.438 21.7616 82.7766 21.578C82.9506 21.4802 83.3248 20.5132 83.7106 20.4081C85.0566 20.0417 86.1184 20.0657 87.1718 19.7283C87.3128 19.6826 87.4686 19.6361 87.629 19.5882C88.5426 19.2987 89.6015 19.0342 90.4061 18.8163C90.8782 18.6878 91.273 18.1897 91.7252 18.0714C92.3633 17.9061 92.4012 18.7108 92.5095 18.7365C92.9748 18.8534 92.848 17.9924 93.2451 17.9291C93.9744 17.8183 94.133 18.3782 94.9871 18.1562C95.4255 18.0414 96.2045 17.6373 96.8219 17.3198C97.6287 17.0816 98.1781 16.9703 98.4778 16.9004C98.6213 16.9255 98.7452 16.949 98.6808 16.9889C98.6355 17.0121 98.5742 17.0282 98.2191 17.1075C98.0294 17.1553 97.7932 17.1916 97.1253 17.4156C96.9533 17.4756 96.7551 17.5475 96.4692 17.6715C96.3295 17.7325 96.1836 17.7998 96.0107 17.8872C95.8161 17.9856 95.6013 18.1027 95.3632 18.2493C94.9398 18.5149 94.1926 19.0004 93.3656 19.9353C92.4833 20.9115 91.3959 22.7411 91.2136 24.9505C90.9446 26.9368 92.5246 30.11 93.5692 30.8083C94.6 31.696 94.9033 31.6986 94.9536 31.7646C95.012 31.8104 94.2561 31.6697 93.5351 31.5653C92.4974 31.3958 92.5492 30.5591 92.0565 30.4015C90.9633 30.0413 89.7098 29.9996 88.0337 29.3927C87.4541 29.297 86.8934 29.1728 86.3871 28.8845C84.7363 27.9421 83.7376 26.5084 82.3108 25.5699C82.0797 25.4182 81.7431 26.0846 81.5037 25.9595C80.6176 25.495 79.4873 24.9653 78.8165 24.444C78.7734 24.4105 78.7336 24.3754 78.6968 24.3389C78.1478 23.7746 78.3232 22.7835 77.494 22.5611C77.2354 22.4936 76.7155 23.2877 76.2772 23.1896C75.5798 23.0312 75.2657 21.9273 74.8451 21.6062C74.2641 21.1684 74.3867 22.3148 73.5696 21.752C73.536 21.7285 73.7167 21.0467 73.5092 20.9777C72.9 20.7709 72.7161 21.2884 71.8765 20.797C71.8007 20.7517 70.9296 19.5526 70.8087 19.482C70.7212 19.4337 70.6239 19.3759 70.5194 19.3112C70.5491 19.2588 70.1145 18.9062 69.8469 18.9516C68.7531 19.1273 69.2892 20.3735 68.938 17.9292C68.3238 18.3298 67.6688 18.7349 66.9063 19.0834C67.469 18.7204 65.914 17.5468 65.7344 17.5346C64.4788 17.5387 64.9427 18.6248 63.3683 17.9228C65.1587 17.159 63.8886 17.0522 62.3366 16.802C62.7923 17.2037 62.7365 17.3916 62.7245 17.4161C61.9203 17.4802 58.4677 17.0444 55.4271 17.2897C54.3572 17.3687 52.9192 17.9097 51.735 17.9935C51.4585 18.0148 51.6297 17.5209 51.3862 17.5298C51.1432 17.542 51.4551 18.0564 51.1754 18.0501C50.863 18.0415 50.5636 18.0055 50.2668 17.9604C48.8067 17.7594 47.6106 17.3395 46.2341 18.4525C46.1426 18.2735 46.1378 18.1288 45.9928 17.9343C44.6407 19.1464 41.8279 17.683 40.7912 17.4592C39.1625 17.1218 38.6916 17.8714 37.4647 17.6598C35.8211 17.3882 33.4364 15.5932 34.3003 18.1827C33.0966 18.1295 31.8694 17.9722 30.6442 17.4921C30.511 17.4387 30.7309 16.841 30.6789 16.8173C30.3387 16.6555 30.1146 17.1827 29.8666 17.1544C29.2045 17.0752 30.3967 16.6566 29.4531 16.6319C28.9821 16.6231 28.4748 17.005 27.4448 16.7371C26.8849 16.586 26.6248 16.5548 26.9356 16.603C23.1825 16.1793 19.5092 15.05 17.0337 14.3807C16.9669 14.3418 16.7195 14.2931 16.5275 14.2955C16.324 14.2958 16.1117 14.3252 15.84 14.4247C15.796 14.4348 15.8486 14.4119 16.0086 14.2925C16.1573 14.1747 16.4 14.7658 16.6593 14.4948C17.1565 14.0985 17.8766 12.189 17.5914 11.5381C17.3748 10.8692 17.1234 11.5082 17.3215 11.9715C17.4996 12.4586 17.8325 12.6995 18.16 12.8247C18.493 12.9668 18.832 13.0125 19.1566 13.5131C19.2846 13.7156 18.7462 13.6612 18.7917 13.8668C18.9779 15.1467 19.2781 16.949 18.5234 21.0597C18.4616 21.2209 18.4081 21.3752 18.3662 21.5221C18.1442 22.2866 18.9373 22.3754 18.8833 22.9314C18.798 23.7617 17.8219 24.3947 17.6963 24.7997C17.109 26.7117 17.3488 28.1912 16.4884 29.8041C16.677 29.7911 16.8459 29.7964 17.0289 29.7921C16.9047 30.1646 16.7787 30.5338 16.6514 30.8998C16.4817 31.3106 16.2429 32.3569 16.0799 33.5728C16.2477 33.5207 16.4166 33.4729 16.5869 33.4248C16.295 35.1821 14.5979 34.9122 18.2662 35.0573C18.382 35.2072 18.5178 35.3694 18.6244 35.5158C16.7437 35.2896 15.2667 36.3613 14.6424 38.1314C14.597 38.2515 16.3527 39.3375 14.1913 39.0423C14.6051 39.2773 14.9147 39.4443 15.2555 39.6358C15.3286 39.7326 15.4027 39.8288 15.4791 39.9291C14.7065 40.7538 13.9752 41.1919 13.3997 40.4587C13.4551 40.129 13.9406 38.8227 12.5749 36.3214C12.6962 35.75 13.2936 35.7694 12.9897 34.7243C12.8842 34.5994 12.7737 34.4762 12.6588 34.3556C12.2415 33.897 11.4376 33.2444 10.353 32.8296C9.27497 32.4032 8.1409 32.348 7.49894 32.4369C6.18406 32.6523 6.31956 32.8914 6.3209 32.8277C6.64965 32.6427 8.05694 30.2511 11.924 30.4782C13.2523 30.0915 12.5447 29.7553 13.3031 29.4326C13.383 29.3491 13.5556 29.2895 13.8351 29.2838C14.0148 29.6893 14.1635 30.081 14.3419 30.5C14.9738 28.5168 15.2784 29.6425 16.4592 29.907C17.2569 30.0876 17.7021 29.5717 18.4378 29.5807C18.6244 29.5833 18.6625 30.1389 18.7842 30.1071C19.1986 30.0032 20.3118 29.1093 20.6047 29.056C23.2639 28.5582 25.5684 28.3898 28.1198 28.3038C28.3924 28.2935 27.9796 27.7881 28.2619 27.7792C28.7197 27.7635 28.5494 28.6322 28.8153 28.6433C29.5585 28.6688 29.4615 27.7849 30.4653 27.6198C30.4746 27.6183 30.4839 27.6167 30.4932 27.6152C29.7219 27.7114 29.6308 27.7602 30.6534 27.5187C31.1768 27.4172 32.0469 27.2317 33.4396 27.285C34.8057 27.3211 36.7446 27.8032 38.2033 28.6926C42.6906 31.2298 44.4292 36.4973 44.556 39.1756C44.8016 42.1072 44.4294 44.1379 44.1926 45.9485C44.1746 46.0869 44.6924 46.1471 44.6771 46.2991C44.568 47.2913 43.7163 48.0884 43.5842 48.8606C43.3628 50.134 43.8969 51.1771 43.7135 52.1784C43.5816 52.8943 43.4403 53.5169 43.3612 53.7101C43.1238 55.3435 42.8005 56.7306 42.6424 58.1235C42.4319 59.9487 42.3679 61.4779 42.231 63.4888C42.0053 66.8503 42.1188 70.3537 42.2781 73.8899C42.404 79.6508 42.5076 83.9295 42.451 88.5717L33.8205 79.3C34.3131 79.3979 34.8341 79.5015 35.3658 79.6111C35.5746 79.6548 35.4434 80.1047 35.5095 80.091C36.1384 79.9504 36.2567 79.3354 36.363 80.6508C37.1842 80.4621 37.5098 79.5072 38.4812 79.6435C38.9991 79.7138 38.5138 81.2023 39.4549 80.4766C40.3067 79.8157 39.4464 78.9467 41.821 79.9093C41.8833 79.9354 42.1622 80.8725 42.6794 80.6524C43.1988 80.4339 42.6344 79.7526 43.867 79.5966C46.7532 79.2302 50.4393 80.0822 53.8024 79.8066C54.0151 79.7918 56.0189 79.2696 56.3994 79.0297C57.1301 78.5687 56.9669 77.8885 57.8848 77.6883C58.2416 77.6102 58.5602 77.758 58.8428 77.9014C59.0037 77.9719 59.122 78.0432 59.2411 78.0836C59.2946 78.1042 59.3302 78.1183 59.3433 78.1232C59.3386 78.1307 59.3585 78.1198 59.1172 78.1336C59.0597 78.1373 58.9817 78.0941 58.8091 78.0473C58.9999 77.9987 59.5871 77.9486 59.7812 77.916C59.9927 77.6667 60.4156 77.2024 60.9489 77.2471ZM42.2449 5.85154C42.4285 5.06289 42.6988 2.17544 43.8494 3.01684C43.9641 3.09575 43.4314 5.10121 44.0901 5.39467C43.4561 5.62711 42.8652 5.71052 42.2449 5.85459C42.2449 5.85358 42.2449 5.85256 42.2449 5.85154ZM68.1537 94.8231C67.1226 94.8883 66.0632 94.9269 65.0011 94.9192C65.6769 94.4788 66.3223 94.0219 66.9369 93.5503C67.3372 93.9787 67.7386 94.4043 68.1537 94.8231ZM11.846 44.8473C11.847 44.8469 11.848 44.8464 11.8491 44.8459C10.8387 45.5806 9.70781 46.9518 6.11582 46.8262C6.52782 46.6285 6.89679 46.3947 7.20839 46.1403C9.46671 45.785 10.3511 44.813 11.0953 44.0809C11.3443 44.3385 11.5925 44.5946 11.846 44.8473ZM17.2234 40.1886C17.8531 40.4452 17.7745 41.0075 18.1599 41.503C18.1598 41.502 18.1597 41.501 18.1596 41.4999C18.2643 41.6284 18.6776 41.7047 18.839 41.7077C18.7423 41.3722 18.6297 41.043 18.5293 40.7106C19.834 39.726 22.8896 42.3656 19.4894 43.944C19.4941 43.5062 19.4969 43.0709 19.5021 42.633C17.7596 42.949 15.707 42.2376 17.2234 40.1886ZM56.2439 3.73039C57.7311 2.22522 58.258 1.886 60.2919 2.83532C60.0097 3.24046 59.7315 3.64791 59.4649 4.05707C59.1303 3.65278 58.7977 3.25381 58.4605 2.85415C58.4595 2.85418 58.4586 2.85422 58.4577 2.85425C58.4085 3.28833 58.3602 3.72323 58.3154 4.1573C57.6227 4.00761 56.9306 3.86647 56.2439 3.73039ZM29.9489 76.8438C27.0898 77.1315 28.7463 77.0807 28.1629 75.8573C27.9598 75.4377 27.4445 75.8129 27.3736 75.5552C26.9838 74.176 28.8843 74.1594 29.8644 74.4933C29.9019 75.2637 29.9241 76.0602 29.949 76.8412C29.949 76.842 29.949 76.8429 29.9489 76.8438ZM56.8306 92.084C56.8314 92.084 56.8323 92.084 56.8331 92.084C56.8877 92.7761 56.3195 92.9761 56.979 93.6174C56.4872 93.6269 55.9963 93.6312 55.4902 93.6368C55.6385 93.5698 55.7878 93.5057 55.9316 93.4384C55.7992 93.2028 55.6653 92.964 55.5307 92.7281C55.364 93.5276 55.2079 93.0673 54.6802 92.8073C54.8355 93.6567 54.9902 94.5065 55.1457 95.3556C54.5288 95.1108 53.9227 94.8622 53.322 94.6123C53.3134 94.3978 53.3046 94.183 53.296 93.9686C53.073 94.244 52.8442 94.5222 52.6184 94.797C52.5568 94.5411 52.4974 94.2875 52.4358 94.0316C52.1661 94.2262 51.8878 94.4202 51.6136 94.6165C51.5309 93.9959 52.1308 93.7292 51.0693 93.8845C51.3995 93.2491 51.7189 92.6151 52.0507 91.9784C53.6417 92.0287 55.2281 92.0678 56.8306 92.084ZM29.4919 65.8604C29.5257 67.6256 29.1022 67.1117 27.7146 66.6353C28.307 66.3693 28.8989 66.1174 29.4919 65.8604ZM6.17502 9.8244C5.33688 8.98329 4.63807 7.85282 4.27537 6.47224C4.50444 5.36304 5.45094 4.62438 6.15799 4.52405C6.87125 4.41921 7.33877 4.80821 7.17723 5.49693C6.82744 7.08726 5.36092 8.30899 6.17502 9.8244ZM29.9758 4.76319C28.5851 3.98485 30.2837 3.19542 30.7676 2.64281C30.8876 3.77719 31.371 3.81722 32.0144 4.10826C31.3847 4.02174 30.1951 4.89253 29.975 4.76615C29.9753 4.76517 29.9755 4.76418 29.9758 4.76319ZM3.73987 29.2066C3.65185 29.783 3.82473 30.3737 3.42962 30.815C2.54011 30.5345 3.5355 29.6431 2.07146 30.1546C2.10811 29.7819 2.15292 29.4006 2.20322 29.0156C2.70888 29.365 3.18579 29.1239 3.73659 29.2074C3.73768 29.2071 3.73878 29.2068 3.73987 29.2066ZM30.157 48.4379C31.4101 47.6683 30.992 47.3945 30.4198 46.3318C31.3166 46.3508 32.5681 47.7429 32.7452 48.5426C31.8828 48.5067 31.0199 48.4708 30.157 48.4379ZM70.7248 62.9399C69.5965 62.7045 69.4443 60.9572 69.7744 60.0828C69.9421 60.1858 70.1119 60.2892 70.2821 60.3925C70.4299 61.2413 70.5776 62.0921 70.7248 62.9399ZM32.3135 4.26024C32.2072 4.20081 32.1145 4.15259 32.0144 4.10826C32.1329 4.12534 32.2283 4.16851 32.3135 4.26024ZM81.8343 16.4868C80.9593 17.2143 81.8262 18.111 80.7648 17.0382C80.7643 17.0391 80.7638 17.04 80.7633 17.0408C80.0526 16.3359 79.8961 16.1704 79.1373 15.677C80.0548 14.6155 81.9403 15.0607 79.7973 13.6117C79.7678 13.5951 79.4525 14.3468 79.1411 14.0603C79.0452 13.9718 78.9917 13.1933 78.5315 12.7403C78.3828 12.5947 77.146 11.7321 78.9656 12.647C79.3455 11.7719 79.8827 10.9642 80.2998 10.1401C81.1412 10.27 80.84 12.2128 81.6158 12.5742C82.768 13.1072 84.2784 11.8009 83.2733 14.0736C82.0403 14.0659 80.4364 13.2351 80.908 11.8059C79.9969 11.3117 79.185 12.2669 79.6381 13.1785C83.1219 14.1537 79.6496 15.1986 82.7947 15.8442C82.9979 15.5643 83.2939 15.3078 83.4391 15.0183C83.6445 16.5389 82.1452 16.222 81.8343 16.4868ZM76.599 10.7639C77.4642 10.3953 78.3255 10.0128 79.1917 9.63575C78.653 10.6908 77.8744 11.4892 76.7257 11.648C76.6835 11.3527 76.64 11.0565 76.599 10.7639ZM78.4747 33.126C78.5797 33.7669 78.5459 34.3943 78.5883 35.024C78.2187 34.4846 74.6276 35.4657 76.1344 34.2222C76.3729 34.0127 78.3632 34.5107 78.4747 33.126ZM30.1845 55.7114C30.6696 55.247 31.1544 54.7943 31.6345 54.3433C31.8297 55.1333 32.0206 55.9498 32.2148 56.7642C31.5378 56.4141 30.8608 56.0635 30.1845 55.7114ZM14.3081 3.97903C14.0575 4.00594 14.7106 2.96496 13.7546 3.30925C14.3615 2.58947 15.0378 2.0032 15.827 1.42151C16.0985 1.82519 16.3521 2.2346 16.581 2.65172C16.755 2.38104 16.9429 2.11544 17.1371 1.85219C17.0064 2.45913 16.9028 3.05367 16.7935 3.67379C15.5629 2.37937 15.3278 3.9008 14.3081 3.97903ZM7.8577 32.6048C6.51457 32.6459 5.92368 31.0036 5.52613 32.4957C4.695 32.1074 4.29085 31.5758 4.35986 30.6281C4.71308 30.5295 5.06397 30.4366 5.41798 30.3465C4.54345 30.1728 4.25217 29.8848 3.73987 29.2066C3.74097 29.2063 3.74207 29.206 3.74316 29.2057C4.00493 27.6831 4.32002 27.8089 5.8187 27.8758C4.60099 29.1831 5.92701 29.5581 6.53553 30.6454C6.96282 31.3896 6.60931 32.209 7.8577 32.6048ZM82.9217 31.8781C82.8754 31.9814 82.8402 32.0813 82.8133 32.1774C82.422 33.3401 83.2434 33.9529 81.3434 33.3297C81.3811 33.025 81.4202 32.7223 81.4576 32.4174C81.8815 32.2633 82.3115 32.1076 82.7453 31.9451C82.8038 31.9226 82.8626 31.9003 82.9217 31.8781ZM2.89006 37.079C4.94667 37.1401 6.61513 36.3312 3.2961 35.908C2.54574 36.7617 4.46823 36.4723 2.89006 37.079ZM28.7868 7.78604C28.4593 7.69332 28.23 7.54733 28.0574 7.35467C27.4013 6.63256 27.8649 5.19085 28.4274 4.30348C28.4895 4.24011 28.5542 4.18049 28.6206 4.12519C28.7244 4.56542 28.8007 5.00652 28.8561 5.44286C29.26 5.32251 29.6566 5.22089 30.0275 5.12115C29.5928 6.00044 29.1672 6.88725 28.7868 7.78604ZM32.9898 37.7262C32.9138 38.2252 32.9841 38.4799 33.0274 38.6274C33.0399 38.7022 32.9969 38.7674 32.8458 38.7938C32.698 38.8226 32.4725 38.7827 32.3276 38.7498C32.3604 38.8782 32.2933 38.9921 32.065 39.1992C32.0659 39.2007 32.0668 39.2022 32.0678 39.2037C32.2672 39.5505 32.8088 39.7041 33.0057 39.6355C33.2221 39.5771 33.1695 39.4201 33.0443 39.2502C32.7663 38.9114 32.3901 38.3861 32.4885 37.8847C32.7363 37.7934 32.9569 37.7342 32.9895 37.7262C32.9896 37.7262 32.9897 37.7262 32.9898 37.7262ZM25.5137 39.1066C25.9066 40.6399 25.5403 40.2212 26.5632 39.8229C26.855 39.7101 29.3158 40.024 28.1645 38.8472C27.3096 38.9441 26.4039 39.0229 25.5137 39.1066ZM48.8494 6.77388C48.923 7.45555 47.1778 9.0791 46.9221 8.7155C46.9222 8.71651 46.9222 8.71753 46.9223 8.71854C46.2327 7.73732 48.1411 7.4725 47.2179 6.12587C48.4485 6.82775 49.0085 5.87444 49.3273 6.07051C49.5077 6.18488 49.5935 6.68983 49.6597 8.13728C49.5997 8.15156 49.5443 8.16248 49.4932 8.17024C48.6053 8.30291 49.0164 7.50382 48.8494 6.77388ZM67.5325 85.9256C67.5325 85.9265 67.5325 85.9274 67.5325 85.9283C67.5646 85.813 68.5664 84.7807 68.9134 84.909C68.6158 86.1419 67.9564 85.9193 69.04 87.0665C68.691 87.1291 68.3525 87.1767 68.0009 87.2489C67.7939 86.8 67.3747 86.549 67.5325 85.9256ZM73.8026 33.5531C73.9081 33.4456 74.0765 33.3931 74.2774 33.3562C74.717 33.2893 75.3084 33.4054 75.6066 33.2421C75.5331 34.1084 75.3453 34.6095 75.0987 34.8731C73.9061 35.8254 72.7294 34.5621 73.8026 33.5531ZM39.6826 91.9357C39.6813 91.9366 39.6799 91.9376 39.6786 91.9385C39.679 91.937 39.6796 91.9355 39.6801 91.934C39.681 91.9346 39.6818 91.9351 39.6826 91.9357ZM94.5287 20.2265C94.5061 20.4157 94.4755 20.5755 94.4346 20.7104C94.4298 20.7228 94.4251 20.7351 94.4203 20.7475C94.4565 20.5764 94.4929 20.4032 94.5287 20.2265ZM52.6766 6.26682C53.5185 7.15631 51.0733 8.86386 50.2164 8.57069C50.2401 8.13295 50.2181 7.73956 50.3138 7.23133C51.07 8.29959 52.5357 6.11612 52.6766 6.26682ZM7.73754 21.1323C8.16635 19.194 11.3153 22.5346 8.35083 21.9884C8.29667 21.9692 7.7335 21.1806 7.73754 21.1323ZM36.9608 7.15052C36.3755 8.24447 37.3764 8.6379 35.7495 8.29489C35.6814 7.99192 35.617 7.68826 35.5561 7.38532C36.0326 7.31654 36.5017 7.23653 36.9608 7.15052ZM11.8904 10.0498C11.4539 9.03938 13.7715 6.78219 10.7331 4.75892C10.5722 4.95781 10.4117 5.16266 10.2759 5.36695C11.0653 6.69661 9.95109 6.31467 9.08733 7.20925C9.42108 7.73827 9.2036 8.29448 9.60773 8.64231C10.4082 9.24922 11.1718 9.341 11.8904 10.0498ZM33.2044 82.7338C32.9437 82.6887 32.6817 82.6444 32.4236 82.5989C32.1351 82.1902 31.8502 81.778 31.566 81.3614C32.0656 81.44 32.5653 81.5183 33.065 81.5958C33.1101 81.9755 33.1573 82.3512 33.206 82.7312C33.2055 82.7321 33.2049 82.7329 33.2044 82.7338ZM73.0131 12.574C74.35 10.0209 73.2712 10.1055 71.3169 11.0596C71.9322 11.5474 72.5212 12.0505 73.0131 12.574ZM13.2423 36.9622C13.5328 37.7293 13.8022 38.5007 14.0514 39.2806C14.234 38.9551 14.3641 38.6542 14.4297 38.3534C14.5017 37.9454 14.4308 37.5356 14.2729 37.1119C14.1564 36.874 13.9878 36.6368 13.7779 36.4043C13.5747 36.585 13.3988 36.7731 13.2423 36.9622ZM26.0247 35.0761C25.6461 34.947 25.903 35.5821 25.8639 35.5731C24.9142 35.3305 24.7526 35.044 23.6892 35.662C23.5718 35.8495 23.4565 36.0456 23.339 36.2382C24.0458 37.8825 24.3176 36.9135 25.524 37.7913C25.2614 37.2296 25 36.667 24.7373 36.1027C25.3595 36.1583 25.9783 36.2124 26.6008 36.2674C26.6527 36.0793 26.7044 35.8929 26.7566 35.7048C26.5143 35.4978 26.2626 35.2628 26.0247 35.0761ZM32.4992 87.3989C32.4543 87.9612 32.4122 88.5214 32.3776 89.0866C32.3751 89.1985 32.4766 89.289 32.5864 89.3108C32.6222 89.3195 32.658 89.3281 32.694 89.3367C32.7662 88.9207 32.8376 88.5017 32.909 88.0856C32.8484 88.1122 32.7879 88.1388 32.7276 88.1653L33.5303 89.0276C33.1817 88.4891 32.8379 87.9489 32.4992 87.3989ZM84.2567 17.0862C84.3743 16.9824 84.4915 16.8773 84.6056 16.7675C84.5058 16.9251 84.3863 17.0231 84.2567 17.0862ZM65.2194 87.5015C64.9245 88.1801 65.1181 89.1388 65.0561 89.8896C66.114 89.8303 65.8216 87.9513 66.4629 87.286C66.2731 87.1758 65.3435 87.2146 65.2194 87.5015ZM26.4243 7.3243C26.1676 7.81609 25.9042 8.30299 25.6368 8.79045C25.2243 8.65687 24.816 8.51359 24.4098 8.36786C24.3065 8.78759 24.2022 9.21095 24.0982 9.63052C26.1108 9.47205 25.4271 10.5929 26.2383 11.9742C26.2767 10.4228 26.3401 8.87371 26.4243 7.3243ZM49.878 87.2636C48.5831 87.545 48.1037 88.0821 48.8275 89.388C49.2942 89.0961 49.7568 88.8026 50.2207 88.5081C50.1056 88.0935 49.9905 87.6784 49.878 87.2636ZM94.3759 25.5468C93.399 26.26 92.9709 24.5712 92.1256 25.7901C92.7834 25.9491 93.428 26.1285 94.0609 26.3149C94.1632 26.0595 94.2707 25.8018 94.3759 25.5468ZM56.7687 14.1464C57.2316 14.7261 57.9361 11.8006 59.2117 13.8853C59.473 13.2436 59.6395 12.6343 59.8727 12.0093C60.0262 12.6821 60.1961 13.364 60.3276 14.0332C60.3284 14.0332 60.3291 14.0332 60.3299 14.0332C61.3428 13.8046 60.6948 12.9584 60.7157 12.241C60.7296 11.9419 61.4973 12.45 61.2676 11.7999C60.8746 10.6724 59.202 11.3385 59.1593 9.99131C59.7715 10.4118 60.9138 10.0406 60.5741 9.13893C60.1811 8.14557 59.0933 9.82645 58.3547 9.03593C59.4505 11.1571 57.3512 10.5723 57.0095 8.93354C55.8341 10.2802 57.0167 10.7239 58.2607 10.6112C57.5552 11.9161 58.648 11.1794 58.8616 12.2326C58.1325 12.8867 55.4212 12.5198 56.7687 14.1464ZM13.5643 18.7765C13.4309 17.2152 13.6877 15.6009 12.5062 15.275C11.811 15.0873 11.6949 16.5713 10.5011 15.8815C10.8115 16.6914 11.2289 16.8291 12.0322 16.4738C12.1823 16.6601 12.3298 16.8581 12.4747 17.0689C12.3308 17.207 12.1885 17.347 12.0422 17.4856C12.413 17.548 12.7808 17.6195 13.1514 17.7077C13.1238 18.0099 13.0874 18.322 13.0303 18.6618C13.2102 18.6925 13.3676 18.7563 13.5643 18.7765ZM64.9373 37.8287C64.9322 37.5617 64.8961 37.3155 64.9807 36.8265C64.7637 36.8345 64.536 36.8612 64.3122 36.897C64.1365 36.9174 63.9609 36.9442 63.7856 36.9757C63.9665 36.917 64.1951 36.6205 64.5285 36.2804C65.212 35.8069 66.045 35.3503 66.08 34.7015C66.1519 34.2289 64.6182 33.9047 65.915 32.6957C64.9263 33.3987 64.022 34.6066 63.6378 35.9181C63.3619 35.6785 63.0913 35.4247 62.8385 35.1507C62.8377 35.1513 62.8368 35.152 62.836 35.1526C62.7552 35.2769 62.6774 35.405 62.6031 35.5366C62.4399 35.8688 62.3024 36.3118 62.2326 36.6063C62.1586 36.9126 62.12 37.1151 62.0838 37.286C63.0282 37.561 63.9824 37.6987 64.9373 37.8287ZM11.8115 35.7403C11.0439 36.7755 11.0192 37.2058 11.8393 38.0245C11.8404 38.0245 11.8415 38.0246 11.8425 38.0247C11.9497 37.4465 12.0893 36.8613 12.316 36.2656C12.1523 36.0879 11.9836 35.9125 11.8115 35.7403ZM88.4432 23.8872C92.1109 21.2637 87.3871 21.362 87.2923 22.9573C87.2867 23.0305 88.5358 23.4087 88.4432 23.8872ZM28.7872 9.09637C28.4459 9.03956 28.1359 9.00049 27.8586 8.99293C27.7496 8.98669 27.6412 8.98009 27.5333 8.97321C27.5787 9.45054 27.6316 9.92683 27.6875 10.4042C27.687 10.4467 27.6864 10.4892 27.6857 10.5318C27.9331 10.0168 28.3308 9.54022 28.7872 9.09637ZM44.2956 85.2742C43.8326 84.1218 42.5905 83.6646 41.9192 84.8741C42.2395 85.0328 42.5583 85.1908 42.88 85.3479C42.2577 85.4668 41.6385 85.5974 41.0127 85.7023C40.9035 87.2846 41.6667 86.4017 42.7345 86.88C42.8971 86.9574 43.9148 88.9629 44.3358 87.4904C44.4187 87.1883 43.2808 86.9441 44.1044 86.0834C43.7597 86.0026 43.4598 86.0079 43.1335 85.9573C43.1234 85.5789 43.1137 85.2002 43.1016 84.8217C43.4995 84.9731 43.8958 85.125 44.2956 85.2742ZM12.2863 13.1587C12.1684 12.1781 11.564 12.2271 10.4195 12.1395C10.5987 12.587 10.81 13.0394 11.0436 13.5028C11.4564 13.3859 11.8703 13.2733 12.2863 13.1587ZM34.0163 84.2644C33.4246 84.0135 33.5836 84.9485 33.3179 85.0919C33.2403 85.1337 33.1657 85.1679 33.0937 85.1954L36.5188 88.8749C36.0502 88.0557 36.5508 87.4133 36.1524 86.5532C36.3298 86.6118 36.4956 86.6645 36.6679 86.72C36.6679 86.7192 36.6678 86.7184 36.6678 86.7176C37.3809 82.2525 35.3125 84.5972 35.7217 87.2994C35.385 87.3732 35.0478 87.4454 34.7139 87.5209C34.9888 88.0413 35.2638 88.5357 35.6192 88.9209L32.9835 86.0894C33.539 85.7162 33.9476 85.1768 34.0163 84.2644ZM75.1199 16.376C75.0709 16.5891 74.0492 17.5811 75.1023 17.4105C76.5997 15.9647 75.168 16.3312 75.262 15.528C75.5558 15.4665 75.8507 15.411 76.1401 15.3467C75.1621 14.2222 74.7584 14.5362 74.5548 16.0513C74.5439 16.1547 75.1687 16.1635 75.1199 16.376ZM82.2834 21.4045C83.9478 19.0201 81.8096 19.2552 81.4068 20.0658C81.5876 20.2151 81.9952 19.8866 82.0958 20.2003C82.1984 20.5157 81.9028 21.1281 82.2834 21.4045ZM36.8961 13.1643C36.9576 13.182 37.4299 14.4307 37.4317 13.4746C36.8889 11.1888 35.4341 12.5202 35.5907 13.3224C36.0608 13.3258 36.3879 13.0118 36.8959 13.1673C36.896 13.1663 36.8961 13.1653 36.8961 13.1643ZM52.0501 84.7049C52.0216 84.6247 50.7819 84.1327 50.6153 84.5859C50.4813 85.0974 50.4124 85.646 50.3093 86.1757C51.0024 85.6895 52.4012 86.0632 52.0476 84.7049C52.0484 84.7049 52.0492 84.7049 52.0501 84.7049Z" fill="black"/>
</g>
</svg>
