<?xml version="1.0" encoding="utf-8"?>
<!-- Generator: Adobe Illustrator 28.0.0, SVG Export Plug-In . SVG Version: 6.00 Build 0)  -->
<svg version="1.1" id="Layer_1" xmlns="http://www.w3.org/2000/svg" xmlns:xlink="http://www.w3.org/1999/xlink" x="0px" y="0px"
	 viewBox="0 0 592 592" style="enable-background:new 0 0 592 592;" xml:space="preserve">
<style type="text/css">
	.st0{clip-path:url(#SVGID_00000155835405025208425260000001376329666925843111_);}
	.st1{fill:#FF0000;}
	.st2{fill:#FFFFFF;}
</style>
<g>
	<defs>
		<rect id="SVGID_1_" width="591.9" height="591.9"/>
	</defs>
	<clipPath id="SVGID_00000165206413450350855420000011750821764870391430_">
		<use xlink:href="#SVGID_1_"  style="overflow:visible;"/>
	</clipPath>
	<g style="clip-path:url(#SVGID_00000165206413450350855420000011750821764870391430_);">
		<path class="st1" d="M295.9,546.9c-67,0-130.1-26.1-177.4-73.5C71.1,426,45,363,45,296s26.1-130.1,73.5-177.4
			C165.9,71.1,228.9,45,295.9,45s130,26.1,177.4,73.5c47.4,47.4,73.5,110.4,73.5,177.4s-26.1,130-73.5,177.4
			C426,520.8,363,546.9,295.9,546.9z"/>
		<path d="M295.9,90c113.7,0,205.9,92.2,205.9,205.9s-92.2,205.9-205.9,205.9S90,409.7,90,295.9S182.2,90,295.9,90z M295.9,0
			C256,0,217.3,7.8,180.7,23.3c-35.2,14.9-66.9,36.2-94,63.4s-48.5,58.8-63.4,94C7.8,217.3,0,256,0,295.9s7.8,78.7,23.3,115.2
			c14.9,35.2,36.2,66.9,63.4,94c27.2,27.1,58.8,48.5,94,63.4c36.5,15.5,75.3,23.3,115.2,23.3s78.7-7.8,115.2-23.3
			c35.2-14.9,66.9-36.2,94-63.4c27.1-27.2,48.5-58.8,63.4-94c15.5-36.5,23.3-75.3,23.3-115.2s-7.8-78.7-23.3-115.2
			c-14.9-35.2-36.2-66.9-63.4-94c-27.2-27.2-58.8-48.5-94-63.4C374.6,7.8,335.9,0,295.9,0z"/>
		<path class="st2" d="M295.9,90c113.7,0,205.9,92.2,205.9,205.9s-92.2,205.9-205.9,205.9S90,409.7,90,295.9S182.2,90,295.9,90z
			 M295.9,10c-38.6,0-76,7.6-111.3,22.5c-34.1,14.4-64.6,35-90.9,61.2c-26.2,26.2-46.8,56.8-61.2,90.9C17.6,219.9,10,257.4,10,296
			s7.6,76,22.5,111.3c14.4,34.1,35,64.6,61.2,90.9c26.2,26.2,56.8,46.8,90.9,61.3c35.3,14.9,72.8,22.5,111.3,22.5s76-7.6,111.3-22.5
			c34.1-14.4,64.6-35,90.9-61.3c26.2-26.2,46.8-56.8,61.2-90.9c14.9-35.3,22.5-72.8,22.5-111.3s-7.6-76-22.5-111.3
			c-14.4-34.1-35-64.6-61.2-90.9c-26.2-26.2-56.8-46.8-90.9-61.2C372,17.6,334.5,10,295.9,10z"/>
		<path d="M295.9,90c113.7,0,205.9,92.2,205.9,205.9s-92.2,205.9-205.9,205.9S90,409.7,90,295.9S182.2,90,295.9,90z M295.9,80
			c-29.1,0-57.4,5.7-84.1,17c-25.7,10.9-48.8,26.4-68.6,46.3c-19.8,19.8-35.4,42.9-46.3,68.6c-11.3,26.6-17,54.9-17,84.1
			s5.7,57.4,17,84.1c10.9,25.7,26.4,48.8,46.3,68.6c19.8,19.8,42.9,35.4,68.6,46.3c26.6,11.3,54.9,17,84.1,17s57.4-5.7,84.1-17
			c25.7-10.9,48.8-26.5,68.6-46.3c19.8-19.8,35.4-42.9,46.3-68.6c11.3-26.6,17-54.9,17-84.1s-5.7-57.4-17-84.1
			c-10.9-25.7-26.5-48.8-46.3-68.6c-19.8-19.8-42.9-35.4-68.6-46.3C353.4,85.7,325.1,80,295.9,80z"/>
		<path d="M423.2,381.6c-3.9-12.1-7.7-24.2-10.8-36.5c-3-12.2-11.4-21-18-31c-5.3-8.1-10.8-16.1-16.9-23.5
			c-12.5-15.3-17.2-33.2-18.6-52.4c-0.1-2-0.4-4.1-1.1-6c-0.7-1.9-2-3.6-3-5.3c0.2-0.5-5-9.8-5.1-9.8
			c-10.3-11.1-21.1-20.7-24.1-36.1c-4-20.3-18.4-36.9-20.3-57.8c-9.1-2.2-16.8-6.3-25.8-5.1c-13.3,1.7-26.8,2.8-40.1,4.2
			c-6.4,0.7-12-0.6-16.5-5c0.1-0.2,0.3-0.4,0.4-0.6c7.8-12.2,24.3-33.4,24.3-33.4l-11-7.4c-5.4,6.7-10.7,13.5-16.3,20
			C212,105,193,120.9,193,120.9l-4.8,2.2l-2.9,11.8l-0.7,2.9l-10.4,8.1l-8.7,3.2l-4.6,8.8l-10.2,4.3l-0.3,0.2l-0.2,0.3l-2.1,4.7
			l7.2,10.2c0,0-19.4,23.6-27.3,33.4c-3-1.4-6.7-3.4-10.4-5.7c-10.2-6.2-21.8-16.8-21.8-16.8L69,217.8l-11,27l36.1,24.8l24.1,16.3
			l42.5,13c9.3-6.3,17.1-14.4,26.6-23.4c-11.9-11.4-25.4-35.7-25.4-35.7l-19.1-13.9l22.4-34l2.6-5l2.6,1.6l15.1-1.3
			c2.1-3.8,8-12,8-12l9.2,14.1l2.2,0.8l0.6,8.3l-2.9,38.8l43.7,37.6c0,0,18.9,12.3,28.4,20.8c-17.2,7.8-24.1,20.9-21.5,38.3
			c-16.4,13-22.8,30.6-27.7,49.1c-1.5,5.6-3.5,11.1-7.8,15.5c-19,19.2-26.9,43.3-31.1,69.2c-0.4,2.3-0.8,4.6-1.2,6.8
			c2.8,1.7,5.6,3.4,8.4,5c4.6-25.4,9.6-50.3,28-70.6c6.7-7.4,10.2-16.2,12.5-25.7c6-24.6,39.2-60,39.2-60l-2.2-1.6l-6.6,3.5l2-13.6
			l19.6-13.7l-6.2-6.2c0,0-4.9-2-7.4-4.3l22.4,5.2l0.5-1.3l-13.8-5.3h0c-11.9-6-24.1-11.3-35.5-18.6c-13-8.5-23.2-19.4-32-31.7
			c-7.1-42.5,5.2-53,45.6-63.4c-2.3-2.1-5.4-0.4-8.1-1.4c3.8-13.8,16.7-18.6,25.8-27.5c-7.6,2.7-15.2,5.4-22.9,8.1
			c-1.6,3.6-3.1,7-4.6,10.4c0.1-10.9-7.2-18.7-11.6-29.4c19.5,0.7,38-8.1,57-0.6c1.1,4.1,2.1,7.8,2.9,10.9
			c-4.5,33.2-20.1,60.8-40.3,86.8c1.6,11.9,4.2,23.9,8.7,35.4c-0.9-10.1-1.8-20.1-2.9-31.9c16.7-16.6,26-39.2,37-61
			c9.6,6.1,16.7,13.4,17.3,25.6c-5.5,1.7-12.4,4.4-18.7,4.8c-0.2,0-1.7-2.6-1.7-2.6l-1.3,0.1l0.3,2.5c0,0,0.1,1.6,0.1,2.4
			c7.3,1.7,15.9-3.1,23.5-2.1c4.1,3.8,8.5,7.5,12.5,11.7c9.2,9.8,17.7,20.1,16.7,34.9c-0.4,6.3,1.6,12.3,3.4,18.1
			c3.5,11.3,2.3,40.8,2.3,40.8l2.1,1c0,0,4.5-11.3,6.3-15.7c41.4,43.5,54.8,95.5,48.2,153.9c-0.5,3-3.9,4.2-5.1,6.1
			c3.1,3,5.3,6,6.8,9c3.1-2.4,6.2-5,9.1-7.6c-0.4-2.1-0.8-4.3-1.1-6.4c-2.1-14.7,1.2-30.2,2.7-45.3
			C425.3,395.7,425.5,388.7,423.2,381.6L423.2,381.6z M236.9,80.9l2.8,1.9c0,0-15.6,22.4-23.4,32.8c-1-0.8-3.9-1.1-4.8-1.9
			C219.5,103.4,236.9,80.9,236.9,80.9L236.9,80.9z M170,266.6l-17.7-0.4l-6.6,0.7c0,0,23.4,5.8,29,6.9c-5.8,5.6-17.6,17.1-17.6,17.1
			l-36.7-11.8c0,0,0,0-0.1-0.1c0,0-0.1-0.1-0.1-0.1c-0.8-0.6-3.7-2.7-7.9-5.6c-0.3-0.2-0.6-0.4-0.9-0.6c-0.1-0.1-0.2-0.1-0.3-0.2
			c-0.8-0.6-1.7-1.1-2.5-1.8c-1.2-0.8-2.4-1.7-3.7-2.6c-0.6-0.4-1.2-0.8-1.8-1.3c0,0-0.1-0.1-0.1-0.1c-0.7-0.5-1.3-0.9-2-1.4
			c-1.7-1.1-3.4-2.3-5.1-3.5c-2.3-1.5-4.6-3.1-7-4.6c-0.4-0.2-0.8-0.5-1.1-0.8c-0.8-0.5-1.5-1-2.3-1.5c-0.4-0.2-0.8-0.5-1.1-0.7
			c-0.8-0.5-1.5-1-2.3-1.5c-1.1-0.7-2.3-1.4-3.4-2.1c-0.4-0.2-0.8-0.5-1.1-0.7c-0.4-0.2-0.7-0.5-1.1-0.7c-1.5-0.9-2.9-1.8-4.3-2.6
			c-0.7-0.4-1.4-0.8-2.1-1.2c-0.7-0.4-1.3-0.8-2-1.2c-0.3-0.2-0.7-0.4-1-0.6c-0.3-0.2-0.6-0.4-1-0.5c3.2-6.5,6-12,9.2-18.5
			c0.9,0.6,1.8,1.2,2.8,1.9c0.9,0.6,1.9,1.3,2.8,1.9c2.1,1.4,4.2,2.9,6.5,4.4c1,0.7,2,1.4,3,2.1c3.5,2.4,7.1,4.9,10.7,7.4
			c1.7,1.2,3.3,2.3,5,3.5c1,0.7,2,1.4,2.9,2c6.1,4.2,11.8,8.2,16.5,11.3c1.1-0.1,2.2-0.2,3.3-0.3c-1.7-1.4-3.5-2.9-5.5-4.5
			c-0.5-0.4-1-0.8-1.5-1.2c-0.7-0.5-1.3-1.1-2-1.7c-0.8-0.7-1.7-1.4-2.6-2.2c-0.7-0.6-1.4-1.2-2.2-1.8c-0.9-0.7-1.8-1.5-2.7-2.2
			c-0.2-0.2-0.5-0.4-0.7-0.5c-0.9-0.7-1.8-1.5-2.7-2.2c-2-1.7-4.1-3.3-6.2-5c-7.1-5.8-14.3-11.6-20.3-16.6c-0.5-0.4-0.9-0.8-1.4-1.1
			c-0.9-0.8-1.8-1.5-2.6-2.2c6.9-5.9,12-12.5,19.2-18.7c1.5,1.2,3.5,2.8,5.7,4.5c0.5,0.4,1.1,0.9,1.7,1.3c2.3,1.8,4.7,3.7,6.9,5.5
			c0.6,0.4,1.1,0.9,1.6,1.3c0.1,0.1,0.3,0.2,0.4,0.3c1,0.8,1.9,1.5,2.8,2.2c0.3,0.3,0.7,0.5,1,0.8c1.8,1.4,2.9,2.3,2.9,2.3
			l-7.4,13.4l12,12.9l12.8-11.4L170,266.6L170,266.6z M125.7,235.5l-4.2-4.2c0,0,34-46,42.3-47.3
			C150.4,201.9,125.7,235.5,125.7,235.5L125.7,235.5z M188.3,173.1l-4.5,6.2l-10.3-7l-1.8,1.8l8.1,9.9l-6.8,0.7l-18.3-17.3l1.1-2.3
			l9.1-1.9l3.9-8.8l7.6-2l4.8-6.8l9.5,8.6l1,15.9l-9.4-6.2l-1.1,1.3L188.3,173.1L188.3,173.1z M193.1,140l-0.3,0.3l-0.5-9.5
			l-0.2-2.7l3.7-2.6l12.9-3.1l3.3-0.8c0.1,0.1,0.5,0.7,2.4,1.3C207.2,129,195.2,138.3,193.1,140L193.1,140z M243.5,169.9
			c-4.8,2-14.2-6.3-14.8-6.8c-0.2,0-0.3,0.1-0.5,0.2c0.3-0.1,0.5-0.2,0.5-0.2s0,0,0,0c4.4-1.6,9.2-2.6,13.4-5.4
			C244.4,161.5,244.3,165.4,243.5,169.9L243.5,169.9z M240.6,149c-4.6,4.2-8.2,10.3-13.2,13.6c-3.9,2.5-8.9,2.9-14.7,1.6
			c-3.7,1.7-4.1,4.5-5,7.8c8.1-0.3,14.1-4.4,20-8.6c0,0,0.1,0,0.1-0.1c0.8,2.9,1.7,5.7,2.6,8.9c-5.5,4.2-12.8,3.9-17.1,8.7
			c-3.7-1.8-7.3-1.9-10.4-5c-2-6.2-4.2-13-6.3-19.7c0.7-6.6,4.4-11.7,5.6-17C216.9,128.7,233.6,133.6,240.6,149L240.6,149z
			 M304.8,157.9c4.3,2.8,4.7,6.5,6.2,10.2C305.6,166.3,303.6,162.9,304.8,157.9z M369.9,402.5l9.8,4.3c0,0,0.8-1,1.1-1.3
			c-10.8-9.1-15.9-19.9-22.3-27.1c-12.8-14.4-13.6-30.7-9-48.8c0.3-1.3-2.1-3.1-2.1-3.1l-7.8,22.6l-4.2-0.2c0,0,8-23.7,3.4-36.3
			c-5.6-3.2-18.3-11-25.1-14.8c-0.6,0.6-1.2,1.2-1.8,1.8c5.2,4.3,16.3,12.5,20.1,15.6c-4.3,25.4-18.9,42.4-37.5,57
			c-1.1-4.8,2.9-14.7,2.9-14.7l-2.6,0.6c0,0-13.6,25.5-20.2,38.3c-4.7,9.1-14.3,12.7-21.5,19.5h-15.3c2.6,4.4,8.1,3.2,10.5,7.1
			c-1.4,4.3-2.7,9.1-6.6,12.1c-10.8,8.2-15.4,19.8-19.5,32c-2.4,7.3-5.2,14.6-7.9,21.9c3.2,1.4,6.6,2.6,9.9,3.8
			c8.4-18.7,10.5-39.7,27.7-53.4c2.5-2,4-4.7,5.4-7.5c3.7-7.6,8.4-14.1,15.9-18.5c2.6-1.5,5.6-3.6,6.9-6.1
			c10.8-22.3,33.8-33.1,48.1-53.1c3.5,2.6,6.6,5.3,11.6,3.8c0,9.7,5.8,16,10.9,22.3c7.7,9.5,11.1,20.3,12.5,32.1
			c1.5,13,3.6,25.9,10.4,37.2c-2.1,9.8-4.1,19.3-6.1,28.5c0.3,3.5,1.7,6.7,2.8,10.1c3.2-1.4,6.4-2.9,9.5-4.4
			c-2.6-13.7,0-25.7,6.9-30.9c-11.4-11.2-17.4-47.8-17.4-47.8L369.9,402.5L369.9,402.5z"/>
		<path class="st2" d="M239.7,82.8c0,0-15.6,22.4-23.5,32.8c-0.9-0.8-3.8-1.1-4.8-1.9c8-10.3,25.4-32.8,25.4-32.8L239.7,82.8
			L239.7,82.8z"/>
		<path class="st2" d="M214.4,122.9l-21.6,17.4l-0.7-12.2l3.7-2.6l16.2-3.9L214.4,122.9z"/>
		<path class="st2" d="M174.7,273.9c-5.8,5.6-17.6,17.1-17.6,17.1l-36.7-11.8c0,0-34.1-24.5-54.3-35.8c3.2-6.5,6-12,9.2-18.5
			c13.8,9.3,36.6,25.3,50.1,34.4c1.1-0.1,2.2-0.2,3.3-0.3c-13.5-11.3-36.3-29.5-50.3-41.2c6.9-5.9,12-12.5,19.2-18.7
			c7.1,5.7,22.9,18.1,22.9,18.1l-7.4,13.4l12,12.9l12.8-11.4l32.1,34.5l-17.7-0.4l-6.6,0.7C145.7,266.9,169.1,272.8,174.7,273.9
			L174.7,273.9z"/>
		<path class="st2" d="M163.7,184c-13.3,18-38,51.6-38,51.6l-4.2-4.2C121.4,231.3,155.5,185.3,163.7,184L163.7,184z"/>
		<path class="st2" d="M181.4,165.1l6.9,7.9l-4.5,6.2l-10.3-7l-1.8,1.8l8.1,9.9l-6.8,0.7l-18.3-17.3l1.1-2.3l9.1-1.9l3.9-8.9l7.6-2
			l4.8-6.8l9.5,8.6l1,15.9l-9.4-6.2L181.4,165.1z"/>
		<path class="st2" d="M311,168.1c-5.4-1.8-7.4-5.2-6.2-10.2C309.1,160.6,309.5,164.4,311,168.1z"/>
		<path class="st2" d="M243.5,169.9c-4.8,2-14.2-6.3-14.8-6.8c4.4-1.6,9.2-2.6,13.4-5.4C244.4,161.5,244.3,165.4,243.5,169.9
			L243.5,169.9z"/>
		<path class="st2" d="M240.6,149c-4.6,4.2-8.2,10.3-13.2,13.6c-3.9,2.5-8.9,2.9-14.7,1.6c-3.7,1.7-4.1,4.5-5,7.8
			c8.1-0.3,14.1-4.4,20-8.6c0,0,0.1,0,0.1-0.1c0.8,2.9,1.7,5.7,2.6,8.9c-5.5,4.2-12.8,3.9-17.1,8.7c-3.7-1.8-7.3-1.9-10.4-5
			c-2-6.2-4.2-13-6.3-19.7c0.7-6.6,4.4-11.7,5.6-17C216.9,128.7,233.6,133.6,240.6,149L240.6,149z"/>
		<path class="st2" d="M407.1,453.3c1.2-1.9,4.6-3.1,5.1-6.1c6.6-58.3-6.8-110.4-48.2-153.9c-1.8,4.4-6.3,15.7-6.3,15.7l-2.1-1
			c0,0,1.2-29.5-2.3-40.8c-1.8-5.8-3.8-11.8-3.4-18.1c1-14.8-7.5-25.1-16.7-34.9c-4-4.2-8.5-7.9-12.5-11.7c-7.6-1-16.2,3.8-23.5,2.1
			c-0.1-0.8-0.1-2.4-0.1-2.4l-0.3-2.5l1.3-0.1c0,0,1.5,2.6,1.7,2.6c6.3-0.4,13.2-3,18.7-4.8c-0.6-12.1-7.7-19.5-17.3-25.6
			c-11.1,21.8-20.4,44.4-37,61c1,11.7,2,21.8,2.9,31.9c-4.5-11.6-7.1-23.5-8.7-35.4c20.3-26,35.8-53.6,40.3-86.8
			c-0.9-3.2-1.8-6.8-2.9-10.9c-19.1-7.5-37.5,1.3-57,0.6c4.3,10.7,11.7,18.5,11.6,29.4c1.5-3.4,3-6.8,4.6-10.4
			c7.6-2.7,15.2-5.4,22.9-8.1c-9,8.9-22,13.7-25.8,27.5c2.7,1,5.8-0.7,8.1,1.4c-40.3,10.4-52.7,20.9-45.6,63.4
			c8.9,12.3,19.1,23.2,32.1,31.7c11.3,7.4,23.6,12.6,35.5,18.6h0l13.8,5.3l-0.5,1.3l-22.4-5.2c2.5,2.4,7.4,4.3,7.4,4.3l6.2,6.2
			l-19.6,13.7l-2,13.6l6.6-3.5l2.2,1.6c0,0-33.2,35.4-39.2,60c-2.3,9.4-5.9,18.3-12.5,25.7c-18.4,20.3-23.4,45.2-28,70.6
			c6.5,3.6,13.3,6.9,20.3,9.8c2.7-7.4,5.5-14.6,7.9-21.9c4.1-12.2,8.8-23.9,19.5-32c3.9-3,5.2-7.8,6.6-12.1c-2.4-4-7.9-2.7-10.4-7.1
			h15.3c7.2-6.9,16.8-10.4,21.5-19.5c6.6-12.8,20.2-38.3,20.2-38.3l2.6-0.6c0,0-4,9.9-2.9,14.7c18.6-14.6,33.2-31.6,37.5-57
			c-3.8-3.1-14.9-11.3-20.1-15.6c0.6-0.6,1.2-1.2,1.8-1.8c6.8,3.8,19.4,11.6,25.1,14.8c4.6,12.6-3.4,36.3-3.4,36.3l4.1,0.2l7.8-22.6
			c0,0,2.4,1.8,2.1,3c-4.7,18.1-3.8,34.3,9,48.8c6.4,7.2,11.5,18,22.3,27.1c-0.3,0.3-1.1,1.3-1.1,1.3l-9.8-4.3l-0.7,2.6
			c0,0,5.9,36.7,17.4,47.8c-7,5.2-9.5,17.2-6.9,30.9c12.2-6,23.6-13.2,34.2-21.5C412.4,459.2,410.1,456.2,407.1,453.3L407.1,453.3z
			 M281.3,221.8l-5.9,1.1l12.8-11.3l1.2,1.7L281.3,221.8L281.3,221.8z M297.2,277.9l-6.8-19l-1.4-13.1l3-0.8l7.1,32.9L297.2,277.9
			L297.2,277.9z M345.5,271.5l-1.3,0.4l-7.9-4.8l0.6-0.2l4.9,1.1l1.7-0.4l1.7-2.1l0.6,0.2L345.5,271.5z"/>
		<path d="M289.4,213.3l-8.1,8.5l-5.9,1.1l12.8-11.3L289.4,213.3z"/>
		<path d="M345.7,265.7l-0.3,5.8l-1.3,0.4l-7.9-4.8l0.6-0.2l4.8,1.1l1.7-0.4l1.6-2.1L345.7,265.7z"/>
		<path d="M299.1,277.9h-1.8l-6.8-19l-1.4-13.1l3-0.8L299.1,277.9z"/>
		<path d="M65.3,142.1c0.7-1.1,1.6-1.9,2.6-2.6c1-0.7,2.1-1.1,3.3-1.4c1.2-0.2,2.3-0.2,3.6,0c1.2,0.2,2.4,0.7,3.4,1.4l27.7,18.2
			c1.1,0.7,1.9,1.6,2.6,2.6c0.7,1,1.1,2.1,1.4,3.3s0.3,2.3,0,3.6c-0.2,1.2-0.7,2.4-1.4,3.4l-6.1,9.3c-0.4,0.6-0.9,0.7-1.4,0.3
			l-41.6-27.3c-0.6-0.4-0.7-0.9-0.3-1.4L65.3,142.1L65.3,142.1z M73.8,146.8c-0.4-0.3-0.9-0.4-1.3-0.3c-0.5,0.1-0.8,0.3-1.1,0.8
			l-1.3,2l30.1,19.8l1.3-2c0.3-0.4,0.4-0.9,0.3-1.3c-0.1-0.5-0.4-0.8-0.8-1.1L73.8,146.8z"/>
		<path d="M122.5,139.9l5.1,4.2c0.5,0.4,0.6,0.9,0.1,1.5L117.5,158c-0.4,0.5-0.9,0.6-1.5,0.1l-38.3-31.7c-0.5-0.4-0.6-0.9-0.1-1.5
			l10.2-12.4c0.4-0.5,0.9-0.6,1.5-0.1l5.1,4.2c0.5,0.4,0.6,0.9,0.1,1.5l-5.4,6.5l8.2,6.8l4.7-5.6c0.4-0.5,0.9-0.6,1.5-0.1l5.1,4.2
			c0.5,0.4,0.6,0.9,0.1,1.5l-4.7,5.6l11.7,9.7l5.4-6.5C121.5,139.5,122,139.5,122.5,139.9z"/>
		<path d="M128,76.1l32.2,37.9c0.5,0.5,0.4,1-0.1,1.5l-5.4,4.6c-0.5,0.4-1,0.4-1.5-0.1L138,102.1l8.7,17.7c0.1,0.2,0.1,0.4,0,0.5
			c-0.1,0.1-0.3,0.1-0.5,0L130,108.9l15.2,17.8c0.4,0.5,0.4,1-0.1,1.5l-5.4,4.6c-0.5,0.4-1,0.4-1.5-0.1L106,94.8
			c-0.4-0.5-0.4-1,0.1-1.5l4.8-4.1c0.2-0.2,0.5-0.3,0.8-0.2c0.3,0,0.6,0.1,0.8,0.2l21.6,16.4l-12.7-24c-0.1-0.2-0.1-0.5-0.1-0.8
			c0-0.3,0.2-0.6,0.4-0.8l4.8-4.1C127.1,75.5,127.5,75.6,128,76.1L128,76.1z"/>
		<path d="M182.7,99.4c0.5,0.5,0.4,1-0.2,1.3l-5.7,3.7c-0.5,0.3-1,0.3-1.5-0.3l-4.8-6.4l-3.9,2.5l3.8,7c0.3,0.6,0.2,1.1-0.4,1.5
			l-5.7,3.6c-0.6,0.4-1,0.2-1.3-0.4l-22.3-44.8c-0.3-0.6-0.1-1.1,0.4-1.5l8.2-5.3c0.6-0.4,1.1-0.3,1.6,0.2L182.7,99.4L182.7,99.4z
			 M165.6,91.1L153.5,75l-0.5,0.3l9.7,17.6L165.6,91.1L165.6,91.1z"/>
		<path d="M185.6,42.4l21.7,44.7c0.3,0.6,0.1,1.1-0.5,1.4l-4.3,2.1c-0.3,0.1-0.6,0.2-0.9,0.1s-0.6-0.2-0.8-0.4l-17.8-18.6l10.7,22
			c0.3,0.6,0.1,1.1-0.5,1.4l-5.9,2.9c-0.6,0.3-1.1,0.1-1.4-0.5l-21.8-44.7c-0.3-0.6-0.1-1.1,0.5-1.4l4.4-2.1
			c0.3-0.1,0.6-0.2,0.9-0.1c0.3,0.1,0.6,0.2,0.8,0.4l17.3,18l-10.4-21.3c-0.3-0.6-0.1-1.1,0.5-1.4l5.9-2.9
			C184.8,41.6,185.3,41.8,185.6,42.4L185.6,42.4z"/>
		<path d="M238.5,24.9L252,72.8c0.2,0.7-0.1,1.1-0.7,1.3l-6.8,1.9c-0.7,0.2-1.1-0.1-1.3-0.7l-6.4-22.5l0.5,19.7
			c0,0.3-0.1,0.4-0.3,0.5c-0.1,0-0.3,0-0.5-0.3l-9.9-17l6.4,22.5c0.2,0.7-0.1,1.1-0.7,1.3l-6.8,1.9c-0.7,0.2-1.1-0.1-1.3-0.7
			l-13.5-47.9c-0.2-0.7,0.1-1.1,0.7-1.3l6.1-1.7c0.3-0.1,0.6,0,0.8,0.1c0.3,0.1,0.5,0.3,0.7,0.5l12.8,23.9l-1.6-27.1
			c0-0.3,0.1-0.5,0.3-0.8c0.2-0.3,0.4-0.5,0.7-0.5l6.1-1.7C237.9,24,238.3,24.3,238.5,24.9L238.5,24.9z"/>
		<path d="M274.3,62.8l1,6.5c0.1,0.7-0.2,1.1-0.9,1.2l-15.9,2.4c-0.7,0.1-1.1-0.2-1.2-0.9L250,22.8c-0.1-0.7,0.2-1.1,0.9-1.2
			l15.9-2.4c0.7-0.1,1.1,0.2,1.2,0.9l1,6.5c0.1,0.7-0.2,1.1-0.9,1.2l-8.3,1.3l1.6,10.5l7.2-1.1c0.7-0.1,1.1,0.2,1.2,0.9l1,6.5
			c0.1,0.7-0.2,1.1-0.9,1.2l-7.2,1.1l2.3,15l8.3-1.2C273.8,61.8,274.2,62.1,274.3,62.8L274.3,62.8z"/>
		<path d="M298.4,18.2l0.3,6.6c0,0.7-0.3,1.1-1,1.1l-5.2,0.2l1.8,42.1c0,0.7-0.3,1.1-1,1.1l-6.6,0.3c-0.2,0-0.5-0.1-0.7-0.3
			s-0.4-0.4-0.4-0.7l-1.8-42.1l-5.2,0.2c-0.7,0-1.1-0.3-1.1-1l-0.3-6.6c0-0.7,0.3-1.1,1-1.1l19.1-0.8
			C298,17.2,298.4,17.5,298.4,18.2L298.4,18.2z"/>
		<path d="M339.3,23.5c1.3,0.2,2.4,0.5,3.5,1.2c1.1,0.6,2,1.4,2.7,2.3c0.7,0.9,1.3,2,1.6,3.2s0.5,2.4,0.3,3.7l-4,32.9
			c-0.2,1.3-0.6,2.4-1.2,3.5c-0.6,1.1-1.4,2-2.3,2.7c-0.9,0.7-2,1.3-3.2,1.6c-1.2,0.3-2.4,0.5-3.7,0.3l-11-1.3
			c-0.7-0.1-1-0.5-0.9-1.2l6-49.4c0.1-0.7,0.5-1,1.2-0.9L339.3,23.5z M338.8,33.2c0.1-0.5-0.1-0.9-0.4-1.3c-0.3-0.4-0.7-0.6-1.2-0.7
			l-2.4-0.3l-4.4,35.7l2.4,0.3c0.5,0.1,0.9-0.1,1.3-0.4c0.4-0.3,0.6-0.7,0.7-1.2L338.8,33.2z"/>
		<path d="M366.5,73.8l-1.5,6.4c-0.2,0.7-0.6,0.9-1.2,0.8l-15.6-3.7c-0.7-0.2-0.9-0.6-0.8-1.2l11.5-48.4c0.2-0.7,0.6-0.9,1.2-0.8
			l15.6,3.7c0.7,0.2,0.9,0.6,0.8,1.2l-1.5,6.4c-0.2,0.7-0.6,0.9-1.2,0.8l-8.2-2l-2.5,10.4l7.1,1.7c0.7,0.2,0.9,0.6,0.8,1.2l-1.5,6.4
			c-0.2,0.7-0.6,0.9-1.2,0.8l-7.1-1.7l-3.5,14.8l8.2,1.9C366.4,72.8,366.7,73.2,366.5,73.8L366.5,73.8z"/>
		<path d="M432.6,56.1l-22.7,44.3c-0.3,0.6-0.8,0.8-1.4,0.4l-5.9-3c-0.6-0.3-0.8-0.8-0.4-1.4l9.7-18.8l-4.4-2.2l-9.7,18.8
			c-0.3,0.6-0.8,0.8-1.4,0.4l-5.9-3c-0.6-0.3-0.8-0.8-0.4-1.4L412.8,46c0.3-0.6,0.8-0.8,1.4-0.4l5.9,3c0.6,0.3,0.8,0.8,0.4,1.4
			l-9.1,17.7l4.4,2.2l9.1-17.7c0.3-0.6,0.8-0.8,1.4-0.4l5.9,3C432.7,55,432.9,55.5,432.6,56.1z"/>
		<path d="M432.6,115.3c-0.3,0.6-0.7,0.8-1.3,0.4l-5.6-3.7c-0.5-0.4-0.7-0.9-0.3-1.5l3.9-7l-3.8-2.5l-4.9,6.3
			c-0.5,0.5-1,0.6-1.5,0.2l-5.6-3.7c-0.6-0.4-0.6-0.8-0.2-1.4l32.3-38.3c0.5-0.5,1-0.6,1.6-0.2l8.1,5.4c0.6,0.4,0.7,0.9,0.4,1.5
			L432.6,115.3L432.6,115.3z M433.4,96.2l10-17.5l-0.5-0.3l-12.3,15.9L433.4,96.2L433.4,96.2z"/>
		<path d="M490.1,99l-32.8,37.4c-0.5,0.5-0.9,0.6-1.5,0.1l-5.3-4.7c-0.5-0.5-0.6-0.9-0.1-1.5l15.4-17.6l-16.3,11.1
			c-0.2,0.1-0.4,0.1-0.5,0c-0.1-0.1-0.1-0.3,0-0.5l8.9-17.6l-15.4,17.6c-0.5,0.5-0.9,0.6-1.5,0.1l-5.3-4.7c-0.5-0.5-0.6-0.9-0.1-1.5
			l32.8-37.4c0.5-0.5,0.9-0.6,1.5-0.1l4.7,4.1c0.2,0.2,0.3,0.5,0.4,0.8c0,0.3,0,0.6-0.1,0.8l-13.1,23.8l21.9-16.1
			c0.2-0.1,0.5-0.2,0.8-0.2c0.3,0,0.6,0.1,0.8,0.3l4.7,4.1C490.5,97.9,490.6,98.4,490.1,99L490.1,99z"/>
		<path d="M477.8,149.7l-4.9,4.4c-0.5,0.5-1,0.4-1.5-0.1l-10.6-12c-0.5-0.5-0.4-1,0.1-1.5l37.3-32.9c0.5-0.5,1-0.4,1.5,0.1l10.6,12
			c0.5,0.5,0.4,1-0.1,1.5l-4.9,4.4c-0.5,0.5-1,0.4-1.5-0.1l-5.6-6.3l-8,7l4.8,5.5c0.5,0.5,0.4,1-0.1,1.5l-4.9,4.4
			c-0.5,0.5-1,0.4-1.5-0.1l-4.8-5.5l-11.4,10l5.6,6.3C478.4,148.7,478.3,149.2,477.8,149.7z"/>
		<path d="M489.4,177c-0.5,0.5-0.9,0.5-1.3,0l-3.9-5.5c-0.2-0.2-0.3-0.5-0.2-0.9c0-0.3,0.1-0.6,0.3-0.9l11.8-14.8L481,165.5
			c-0.5,0.2-0.9,0-1.2-0.4l-3.8-5.4c-0.4-0.6-0.3-1,0.3-1.4l40.8-28.5c0.6-0.4,1-0.3,1.4,0.3l6.4,9.1c0.7,1.1,1.2,2.2,1.5,3.4
			c0.2,1.2,0.3,2.4,0.1,3.6c-0.2,1.2-0.6,2.3-1.3,3.3c-0.7,1.1-1.5,2-2.5,2.7l-9.9,6.9c-1.5,1.1-3.1,1.6-4.8,1.7
			c-1.7,0.1-3.4-0.3-4.9-1.1L489.4,177L489.4,177z M504.1,149.3l1.4,1.9c0.3,0.4,0.7,0.7,1.1,0.7c0.5,0.1,0.9,0,1.3-0.3l9.3-6.5
			c0.4-0.3,0.7-0.7,0.7-1.1c0.1-0.5,0-0.9-0.3-1.3l-1.4-1.9L504.1,149.3L504.1,149.3z"/>
		<path d="M93.6,406.1c0.6,1.1,1,2.3,1.1,3.5s0,2.4-0.3,3.6c-0.3,1.1-0.9,2.2-1.6,3.2c-0.8,1-1.7,1.8-2.8,2.4l-22.5,12.5
			c-1.1,0.6-2.3,1-3.5,1.1s-2.4,0-3.6-0.3c-1.1-0.3-2.2-0.9-3.2-1.6c-1-0.8-1.8-1.7-2.4-2.8l-5.4-9.7c-0.3-0.6-0.2-1.1,0.4-1.4
			l37-20.6c0.6-0.3,1.1-0.2,1.4,0.4L93.6,406.1z M85.4,411.4c0.4-0.2,0.7-0.6,0.8-1.1c0.1-0.5,0.1-0.9-0.2-1.3l-1.2-2.1L60,420.9
			l1.2,2.1c0.2,0.4,0.6,0.7,1.1,0.9c0.5,0.1,0.9,0.1,1.4-0.2L85.4,411.4L85.4,411.4z"/>
		<path d="M81.9,455.2l-5.4,3.8c-0.6,0.4-1,0.3-1.4-0.2l-9.3-13.1c-0.4-0.6-0.3-1,0.2-1.4l34.5-24.6c0.6-0.4,1-0.3,1.4,0.2l9.3,13.1
			c0.4,0.6,0.3,1-0.2,1.4l-5.4,3.8c-0.6,0.4-1,0.3-1.4-0.2l-4.9-6.9l-6.9,4.9l4.2,6c0.4,0.6,0.3,1-0.2,1.4l-5.4,3.8
			c-0.6,0.4-1,0.3-1.4-0.2l-4.2-6l-8.1,5.8l4.9,6.9C82.5,454.3,82.5,454.8,81.9,455.2L81.9,455.2z"/>
		<path d="M125.5,450.1c0.4,1.2,0.6,2.4,0.5,3.5c-0.1,1.2-0.4,2.3-0.9,3.5c-0.5,1.1-1.3,2.1-2.2,3l-3.3,3c-0.5,0.5-1.1,0.5-1.6,0.2
			l-5.2-4.3c-0.6-0.4-0.6-0.8-0.1-1.2l4.2-3.8c0.4-0.3,0.6-0.7,0.6-1.2c0-0.5-0.1-0.9-0.4-1.3l-0.4-0.4c-0.3-0.4-0.7-0.6-1.2-0.6
			c-0.5,0-0.9,0.1-1.3,0.4l-19.4,17.3c-0.4,0.3-0.6,0.7-0.6,1.2c0,0.5,0.1,0.9,0.5,1.3l0.4,0.4c0.3,0.4,0.7,0.6,1.2,0.6
			c0.5,0,0.9-0.1,1.3-0.4l6.6-5.9c0.5-0.5,0.9-0.4,1.2,0.2l3.8,5.6c0.3,0.6,0.2,1.1-0.3,1.6l-5.8,5.2c-1,0.9-2,1.5-3.2,1.9
			c-1.2,0.4-2.4,0.5-3.5,0.5c-1.2-0.1-2.3-0.4-3.5-0.9c-1.1-0.5-2.1-1.3-3-2.2l-1.9-2.1c-0.9-1-1.5-2-1.9-3.2
			c-0.4-1.2-0.5-2.4-0.5-3.5c0.1-1.2,0.4-2.3,0.9-3.5c0.5-1.1,1.3-2.1,2.2-3l20-17.8c1-0.8,2-1.5,3.2-1.9c1.2-0.4,2.3-0.6,3.5-0.5
			c1.2,0.1,2.3,0.4,3.5,0.9c1.1,0.5,2.1,1.2,3,2.2l1.9,2.1C124.5,447.9,125.1,448.9,125.5,450.1L125.5,450.1z"/>
		<path d="M125.1,498.3c-0.8,1-1.8,1.7-3,2.2c-1.1,0.5-2.3,0.8-3.5,0.9c-1.2,0.1-2.4-0.1-3.5-0.5c-1.2-0.4-2.2-1-3.2-1.9l-2.1-1.9
			c-1-0.9-1.7-1.8-2.2-3c-0.5-1.1-0.8-2.3-0.9-3.5s0.1-2.4,0.5-3.5s1-2.2,1.9-3.2l17.8-20c0.9-1,1.8-1.7,3-2.2
			c1.1-0.5,2.3-0.8,3.5-0.9c1.2-0.1,2.4,0.1,3.5,0.5c1.2,0.4,2.2,1,3.2,1.9l2.1,1.9c1,0.9,1.7,1.8,2.2,3c0.5,1.1,0.8,2.3,0.9,3.5
			c0.1,1.2-0.1,2.4-0.5,3.5c-0.4,1.2-1,2.2-1.9,3.2L125.1,498.3L125.1,498.3z M136.2,472.9c0.3-0.4,0.5-0.8,0.4-1.3
			c0-0.5-0.2-0.9-0.6-1.2l-0.4-0.4c-0.4-0.3-0.8-0.5-1.3-0.4c-0.5,0-0.9,0.2-1.2,0.6l-17.3,19.4c-0.3,0.4-0.5,0.8-0.4,1.3
			c0,0.5,0.2,0.9,0.6,1.2l0.4,0.4c0.4,0.3,0.8,0.5,1.3,0.5c0.5,0,0.9-0.2,1.2-0.6L136.2,472.9z"/>
		<path d="M135.5,515.8c-0.4,0.6-0.9,0.6-1.5,0.2l-5.4-3.8c-0.5-0.4-0.6-0.8-0.2-1.4l24.3-34.6c0.4-0.6,0.9-0.6,1.4-0.2l9.1,6.4
			c1.1,0.7,1.9,1.6,2.5,2.7c0.6,1.1,1.1,2.2,1.3,3.3c0.2,1.2,0.2,2.4-0.1,3.6s-0.7,2.3-1.5,3.4l-5.2,7.4c-1.1,1.5-2.4,2.5-4.2,3.1
			c-1.7,0.6-3.4,0.7-5.1,0.5l-3.8,17.7c-0.3,0.7-0.7,0.8-1.2,0.4l-5.5-3.9c-0.2-0.2-0.4-0.4-0.5-0.7s-0.1-0.6,0-0.9l3.4-14.3
			L135.5,515.8L135.5,515.8z M149,496.5l1.9,1.4c0.4,0.3,0.8,0.4,1.3,0.3c0.5-0.1,0.9-0.3,1.1-0.7l4.8-6.8c0.3-0.4,0.4-0.8,0.3-1.3
			c-0.1-0.5-0.3-0.9-0.7-1.1l-1.9-1.4L149,496.5z"/>
		<path d="M166,509.3c-0.6-0.3-0.7-0.8-0.4-1.4l2.7-4.9c0.3-0.6,0.8-0.7,1.4-0.4l13.6,7.5c0.6,0.3,0.7,0.8,0.4,1.4l-2.7,4.9
			c-0.3,0.6-0.8,0.7-1.4,0.4L166,509.3L166,509.3z"/>
		<path d="M206.9,506.1c1.2,0.5,2.2,1.2,3.1,2.1c0.8,0.9,1.5,1.9,1.9,3c0.4,1.1,0.7,2.3,0.7,3.5c0,1.2-0.2,2.5-0.7,3.6l-3.8,9.1
			c-0.5,1.2-1.2,2.2-2.1,3s-1.9,1.5-3,1.9s-2.3,0.7-3.5,0.7c-1.2,0-2.5-0.2-3.6-0.7l-3.2-1.4l-5.8,13.7c-0.3,0.6-0.7,0.8-1.4,0.5
			l-6.1-2.6c-0.6-0.3-0.8-0.7-0.6-1.4l16.6-39c0.3-0.6,0.7-0.8,1.4-0.5L206.9,506.1L206.9,506.1z M203.7,515.3
			c0.2-0.5,0.2-0.9,0-1.4c-0.2-0.4-0.5-0.8-1-1l-2.2-0.9l-4.9,11.6l2.2,0.9c0.4,0.2,0.9,0.2,1.4,0s0.8-0.5,1-1L203.7,515.3
			L203.7,515.3z"/>
		<path d="M215.9,555.3c-0.2,0.7-0.7,0.9-1.4,0.7l-6.3-1.9c-0.6-0.2-0.8-0.6-0.6-1.3l12-40.6c0.2-0.7,0.6-0.9,1.3-0.7l10.6,3.2
			c1.2,0.4,2.3,0.9,3.3,1.7s1.7,1.7,2.3,2.8c0.6,1,0.9,2.2,1.1,3.4c0.2,1.2,0,2.5-0.3,3.7l-2.6,8.7c-0.5,1.8-1.5,3.2-3,4.3
			c-1.5,1.1-3,1.8-4.7,2.1l2,18c0,0.7-0.4,1-1,0.8l-6.5-1.9c-0.3-0.1-0.5-0.3-0.7-0.5c-0.2-0.3-0.3-0.6-0.3-0.9l-1.3-14.7
			L215.9,555.3L215.9,555.3z M222.5,532.7l2.3,0.7c0.5,0.1,0.9,0.1,1.3-0.1c0.4-0.2,0.7-0.6,0.9-1.1l2.4-8c0.1-0.5,0.1-0.9-0.1-1.3
			s-0.6-0.7-1.1-0.9l-2.3-0.7L222.5,532.7L222.5,532.7z"/>
		<path d="M260.8,557.3c-0.2,1.3-0.7,2.4-1.4,3.5c-0.7,1-1.5,1.9-2.5,2.6c-1,0.7-2.1,1.2-3.3,1.5s-2.4,0.3-3.7,0.1l-2.8-0.5
			c-1.3-0.2-2.4-0.7-3.4-1.3c-1-0.7-1.9-1.5-2.6-2.5c-0.7-1-1.2-2.1-1.5-3.3c-0.3-1.2-0.3-2.4-0.1-3.7l4.6-26.4
			c0.2-1.3,0.7-2.4,1.4-3.5c0.7-1,1.5-1.9,2.5-2.6c1-0.7,2.1-1.2,3.3-1.5c1.2-0.3,2.4-0.3,3.7-0.1l2.8,0.5c1.3,0.2,2.4,0.7,3.5,1.3
			c1,0.7,1.9,1.5,2.6,2.5c0.7,1,1.2,2.1,1.5,3.3c0.3,1.2,0.3,2.4,0.1,3.7L260.8,557.3L260.8,557.3z M256.8,529.8
			c0.1-0.5,0-0.9-0.3-1.3c-0.3-0.4-0.7-0.6-1.2-0.7l-0.6-0.1c-0.5-0.1-0.9,0-1.3,0.3c-0.4,0.3-0.6,0.7-0.7,1.1l-4.5,25.7
			c-0.1,0.5,0,0.9,0.3,1.3c0.3,0.4,0.7,0.6,1.1,0.7l0.6,0.1c0.5,0.1,0.9,0,1.3-0.3c0.4-0.3,0.6-0.7,0.7-1.2L256.8,529.8L256.8,529.8
			z"/>
		<path d="M284.7,523.6c1.3,0.1,2.5,0.4,3.6,1c1.1,0.6,2,1.3,2.8,2.2c0.8,0.9,1.4,1.9,1.8,3.1c0.4,1.2,0.6,2.4,0.5,3.7l-0.6,9.8
			c-0.1,1.3-0.4,2.5-0.9,3.6c-0.6,1.1-1.3,2-2.2,2.8c-0.9,0.8-1.9,1.4-3.1,1.8c-1.2,0.4-2.4,0.6-3.7,0.5l-3.5-0.2l-0.9,14.9
			c0,0.7-0.4,1-1.1,1l-6.6-0.4c-0.7,0-1-0.4-1-1.1l2.5-42.2c0-0.7,0.4-1,1.1-1L284.7,523.6L284.7,523.6z M284.8,533.3
			c0-0.5-0.1-0.9-0.4-1.3c-0.3-0.4-0.7-0.6-1.2-0.6l-2.4-0.1l-0.8,12.6l2.4,0.1c0.5,0,0.9-0.1,1.3-0.4c0.4-0.3,0.6-0.7,0.6-1.2
			L284.8,533.3L284.8,533.3z"/>
		<path d="M313.4,523.5c1.2,0.4,2.2,1.1,3.1,1.8c0.9,0.8,1.6,1.7,2.1,2.8c0.5,1.1,0.9,2.3,0.9,3.6l0.1,2.8c0,0.7-0.3,1.2-0.9,1.4
			l-6.6,2.1c-0.6,0.2-1,0-1-0.7l-0.2-4.8c0-0.5-0.2-0.9-0.6-1.2c-0.4-0.3-0.8-0.5-1.3-0.5l-0.6,0c-0.5,0-0.9,0.2-1.2,0.6
			c-0.3,0.4-0.5,0.8-0.5,1.3l0.2,4.5c0.1,0.5,0.2,1,0.4,1.4c0.2,0.4,0.5,0.8,0.9,1.1l10.1,6.7c0.8,0.7,1.4,1.3,1.6,2
			c0.3,0.7,0.5,1.5,0.6,2.4l0.4,7.5c0.1,1.3-0.1,2.5-0.5,3.7c-0.4,1.2-1.1,2.2-1.8,3.1c-0.8,0.9-1.7,1.6-2.8,2.2
			c-1.1,0.5-2.3,0.9-3.6,0.9l-2.8,0.2c-1.3,0.1-2.5-0.1-3.7-0.5c-1.2-0.4-2.2-1.1-3.1-1.8s-1.6-1.7-2.1-2.8
			c-0.5-1.1-0.9-2.3-0.9-3.6l-0.2-4.1c0-0.7,0.3-1.1,0.9-1.4l6.6-2.1c0.6-0.2,1,0,1,0.7l0.3,6.1c0,0.5,0.2,0.9,0.6,1.2
			c0.4,0.3,0.8,0.5,1.3,0.4l0.6,0c0.5,0,0.9-0.2,1.2-0.6c0.3-0.4,0.5-0.8,0.5-1.3L312,554c-0.1-0.6-0.2-1.2-0.4-1.7
			c-0.2-0.5-0.5-0.9-1-1.3l-9.9-6.8c-0.8-0.6-1.3-1.3-1.7-2c-0.4-0.7-0.6-1.6-0.6-2.7l-0.4-6.6c-0.1-1.3,0.1-2.5,0.6-3.7
			c0.4-1.2,1-2.2,1.8-3.1c0.8-0.9,1.7-1.6,2.9-2.1c1.1-0.6,2.3-0.9,3.6-0.9l2.8-0.2C311,522.9,312.2,523.1,313.4,523.5L313.4,523.5z
			"/>
		<path d="M327.8,543.1c-0.7,0.1-1.1-0.2-1.2-0.9l-0.9-5.6c-0.1-0.7,0.2-1.1,0.9-1.2l15.3-2.4c0.7-0.1,1.1,0.2,1.2,0.9l0.9,5.6
			c0.1,0.7-0.2,1.1-0.9,1.2L327.8,543.1L327.8,543.1z"/>
		<path d="M365.4,558.3c0.2,0.7-0.1,1.1-0.8,1.2l-6.4,1.6c-0.7,0.2-1.1-0.1-1.2-0.8l-10-41.1c-0.2-0.7,0.1-1.1,0.8-1.2l6.4-1.6
			c0.7-0.2,1.1,0.1,1.2,0.8L365.4,558.3z"/>
		<path d="M384.4,507.8l14,39.9c0.2,0.7,0,1.1-0.6,1.3l-4.5,1.6c-0.3,0.1-0.6,0.1-0.9,0c-0.3-0.1-0.6-0.2-0.7-0.4l-13.8-15.6
			l6.4,18.2c0.2,0.6,0,1.1-0.6,1.3l-6.2,2.2c-0.6,0.2-1.1,0-1.3-0.6l-14-39.9c-0.2-0.7,0-1.1,0.6-1.3l4.6-1.6c0.3-0.1,0.6-0.1,0.9,0
			c0.3,0.1,0.6,0.2,0.7,0.4l14.4,17.8l-7.1-20.3c-0.2-0.6,0-1.1,0.6-1.3l6.2-2.2C383.7,506.9,384.2,507.1,384.4,507.8L384.4,507.8z"
			/>
		<path d="M408,496.5l2.9,5.9c0.3,0.6,0.1,1.1-0.5,1.4l-4.7,2.3l15.2,31.2c0.3,0.6,0.1,1.1-0.5,1.4l-5.9,2.9c-0.2,0.1-0.5,0.1-0.8,0
			c-0.3-0.1-0.5-0.2-0.6-0.5l-15.2-31.2l-4.7,2.3c-0.6,0.3-1.1,0.2-1.4-0.5l-2.9-5.9c-0.3-0.6-0.1-1.1,0.5-1.4l17.2-8.4
			C407.3,495.7,407.7,495.8,408,496.5z"/>
		<path d="M447,514.5l3.5,5.6c0.4,0.6,0.3,1.1-0.3,1.4l-13.6,8.5c-0.6,0.4-1.1,0.3-1.4-0.3l-22.4-35.9c-0.4-0.6-0.3-1.1,0.3-1.4
			l13.6-8.5c0.6-0.4,1.1-0.3,1.4,0.3l3.5,5.6c0.4,0.6,0.2,1.1-0.3,1.4l-7.1,4.5l4.5,7.1l6.2-3.9c0.6-0.4,1.1-0.3,1.4,0.3l3.5,5.6
			c0.4,0.6,0.3,1.1-0.3,1.4l-6.2,3.9l5.3,8.5l7.1-4.5C446.1,513.8,446.6,513.9,447,514.5z"/>
		<path d="M466.3,508.4c0.4,0.5,0.4,1-0.2,1.5l-5.2,4.1c-0.5,0.4-1,0.3-1.4-0.2l-26.3-33.2c-0.4-0.5-0.4-1,0.2-1.5l8.7-6.9
			c1-0.8,2.1-1.3,3.3-1.7c1.2-0.3,2.4-0.4,3.6-0.3c1.2,0.1,2.3,0.5,3.4,1.1c1.1,0.6,2,1.4,2.8,2.4l5.7,7.1c1.1,1.4,1.7,3,1.8,4.9
			c0.1,1.8-0.3,3.5-1,5.1l15.8,8.7c0.5,0.5,0.6,0.9,0.1,1.3l-5.3,4.2c-0.2,0.2-0.5,0.3-0.8,0.3c-0.3,0-0.6-0.1-0.9-0.2l-12.7-7.4
			L466.3,508.4L466.3,508.4z M451.6,490l1.9-1.5c0.4-0.3,0.6-0.7,0.7-1.2c0.1-0.5-0.1-0.9-0.4-1.3l-5.2-6.5
			c-0.3-0.4-0.7-0.6-1.2-0.7c-0.5-0.1-0.9,0.1-1.3,0.4l-1.9,1.5L451.6,490L451.6,490z"/>
		<path d="M490.3,487.3c0.5,0.5,0.5,1,0,1.5l-4.8,4.6c-0.5,0.5-1,0.5-1.5,0l-29.3-30.5c-0.5-0.5-0.5-1,0-1.5l4.8-4.6
			c0.5-0.5,1-0.5,1.5,0L490.3,487.3L490.3,487.3z"/>
		<path d="M504.9,461.6l5,4.3c0.5,0.5,0.5,0.9,0.1,1.5l-10.6,12.1c-0.5,0.5-0.9,0.5-1.5,0.1l-31.9-27.9c-0.5-0.4-0.6-0.9-0.1-1.5
			l10.6-12.1c0.4-0.5,0.9-0.6,1.5-0.1l5,4.3c0.5,0.5,0.6,0.9,0.1,1.5l-5.5,6.4l6.4,5.6l4.8-5.5c0.5-0.5,0.9-0.5,1.5-0.1l5,4.3
			c0.5,0.5,0.5,0.9,0.1,1.5l-4.8,5.5l7.5,6.6l5.6-6.4C503.9,461.2,504.4,461.2,504.9,461.6L504.9,461.6z"/>
		<path d="M493.8,416.1l28.4,19.8c1,0.7,1.9,1.6,2.5,2.7c0.6,1,1.1,2.2,1.3,3.3c0.2,1.2,0.2,2.4,0,3.6c-0.2,1.2-0.7,2.4-1.5,3.4
			l-1.6,2.3c-0.7,1.1-1.6,1.9-2.7,2.6c-1,0.6-2.2,1.1-3.3,1.3c-1.2,0.2-2.4,0.2-3.6-0.1c-1.2-0.2-2.4-0.7-3.4-1.5l-28.3-19.8
			c-0.6-0.4-0.6-0.9-0.3-1.4l3.8-5.4c0.4-0.6,0.9-0.6,1.4-0.3l28,19.6c0.4,0.3,0.8,0.4,1.3,0.3c0.5-0.1,0.9-0.3,1.1-0.7l0.3-0.5
			c0.3-0.4,0.4-0.8,0.3-1.3c-0.1-0.5-0.3-0.9-0.7-1.1l-28-19.6c-0.6-0.4-0.6-0.9-0.3-1.4l3.8-5.4
			C492.8,415.8,493.2,415.7,493.8,416.1L493.8,416.1z"/>
		<path d="M538.2,423.6c0.6,0.3,0.7,0.8,0.4,1.5l-3.1,5.8c-0.3,0.6-0.8,0.7-1.4,0.4l-37.3-20c-0.6-0.3-0.8-0.8-0.4-1.4l5.3-9.8
			c0.6-1.1,1.4-2.1,2.4-2.8c1-0.8,2-1.3,3.2-1.7c1.1-0.3,2.3-0.5,3.6-0.4c1.2,0.1,2.4,0.5,3.5,1.1l8,4.3c1.6,0.9,2.8,2.1,3.6,3.8
			c0.8,1.6,1.1,3.3,1.1,5.1l18,1.7c0.7,0.2,0.9,0.6,0.6,1.1l-3.2,5.9c-0.1,0.3-0.4,0.5-0.7,0.6s-0.6,0.2-0.9,0.1l-14.6-1.7
			L538.2,423.6z M517.5,412.5l1.1-2.1c0.2-0.4,0.3-0.9,0.1-1.3c-0.1-0.5-0.4-0.8-0.9-1.1l-7.4-4c-0.4-0.2-0.9-0.3-1.3-0.1
			c-0.5,0.1-0.8,0.4-1.1,0.9l-1.1,2.1L517.5,412.5z"/>
		<path d="M43.2,273l7,16.7l18-1.5L54.4,300l7,16.7L46,307.3l-13.7,11.8l4.2-17.6L21,292l18-1.5L43.2,273z"/>
		<path d="M548.7,273l-7,16.7l-18-1.5l13.7,11.8l-7,16.7l15.5-9.4l13.7,11.8l-4.2-17.6l15.4-9.4l-18-1.5L548.7,273z"/>
	</g>
</g>
</svg>
