<svg width="96" height="96" viewBox="0 0 96 96" fill="none" xmlns="http://www.w3.org/2000/svg">
<g clip-path="url(#clip0_905_316)">
<rect width="96" height="96" rx="32" fill="#E11212"/>
<path d="M9.10543 29.3595C12.5328 24.8842 19.5854 15.6408 19.5854 15.6408L46.3671 20.011C46.3671 20.011 72.6272 33.5359 87.9139 39.2854C86.337 44.1444 84.9968 48.2568 83.4179 53.1016L83.417 53.1042C72.8342 48.0802 55.2845 39.2834 44.9612 34.3771C44.2062 34.5612 43.4642 34.7363 42.7163 34.9194C53.2827 41.3543 71.0674 51.6737 81.9775 58.3133C77.7705 63.14 74.9347 68.2878 70.5649 73.3097C65.0286 70.1123 52.7439 63.081 52.7439 63.081L56.4779 53.0043L46.7805 45.2941L39.0456 54.5897L13.0958 33.9193L9.10543 29.3595Z" fill="white"/>
<path d="M14.9993 95.499C22.3531 81.6153 47.5013 48.999 47.5013 48.999L53.9985 53.4996C53.9985 53.4996 36.2657 93.6171 31.0005 102.5C29.4124 101.982 25.4928 106.961 23.4998 106.5L14.9993 95.499Z" fill="white"/>
</g>
<defs>
<clipPath id="clip0_905_316">
<rect width="96" height="96" rx="32" fill="white"/>
</clipPath>
</defs>
</svg>
