<svg width="306" height="123" viewBox="0 0 306 123" fill="none" xmlns="http://www.w3.org/2000/svg">
<path d="M211.626 166.275C209.36 159.281 207.159 152.252 205.385 145.119C203.63 138.055 198.756 132.939 194.972 127.156C191.913 122.479 188.737 117.844 185.208 113.527C177.948 104.638 175.219 94.2594 174.407 83.1337C174.32 81.9574 174.181 80.7348 173.787 79.6454C173.387 78.5502 172.634 77.5883 172.037 76.5684C172.159 76.2845 169.14 70.8897 169.059 70.8723C163.102 64.4345 156.861 58.8832 155.094 49.9827C152.77 38.2427 144.414 28.6295 143.307 16.4723C138.029 15.2149 133.584 12.8391 128.34 13.5055C120.61 14.4906 112.834 15.099 105.086 15.9218C101.383 16.3159 98.1326 15.5742 95.5076 13.0245C95.5887 12.9028 95.6641 12.7754 95.7452 12.6537C100.277 5.55525 109.855 -6.70039 109.855 -6.70039L103.464 -11C100.317 -7.13498 97.2808 -3.17725 94.001 0.577665C89.2552 6.01303 78.2338 15.2033 78.2338 15.2033L75.4524 16.4839L73.743 23.3448L73.3258 25.0136L67.3109 29.7073L62.2928 31.5615L59.6273 36.6898L53.6994 39.1699L53.5023 39.2568L53.4096 39.4596L52.1754 42.1599L56.3475 48.082C56.3475 48.082 45.1059 61.7805 40.505 67.4071C38.7782 66.6132 36.6516 65.4138 34.467 64.0926C28.5275 60.4825 21.8289 54.3518 21.8289 54.3518L6.37409 71.3938L0 87.0625L20.9365 101.433L34.8842 110.861L59.4998 118.388C64.883 114.726 69.4086 110.05 74.9019 104.811C68.0179 98.1824 60.1951 84.1014 60.1951 84.1014L49.1216 76.0179L62.1248 56.3452L63.6198 53.4305L65.1148 54.3518L73.8589 53.6159C75.1047 51.4313 78.4946 46.6681 78.4946 46.6681L83.814 54.8444L85.1005 55.279L85.4713 60.0827L83.814 82.589L109.137 104.377C109.137 104.377 120.1 111.487 125.588 116.406C115.644 120.921 111.617 128.523 113.146 138.606C103.632 146.162 99.9463 156.355 97.0953 167.063C96.2319 170.302 95.044 173.513 92.5639 176.016C81.5599 187.124 76.959 201.107 74.5484 216.097C74.334 217.418 74.1138 218.74 73.8763 220.061C75.4872 221.063 77.1155 222.025 78.7727 222.941C81.4151 208.228 84.3414 193.788 95.0093 182.013C98.8743 177.743 100.931 172.603 102.264 167.144C105.758 152.878 124.991 132.359 124.991 132.359L123.693 131.449L119.857 133.466L121.01 125.568L132.385 117.635L128.815 114.031C128.815 114.031 125.976 112.889 124.51 111.527L137.461 114.541L137.739 113.805L129.754 110.757H129.742C122.847 107.263 115.748 104.22 109.195 99.9555C101.656 95.0475 95.7684 88.7313 90.6227 81.5866C86.5085 56.9536 93.6591 50.8519 117.029 44.8255C115.673 43.6202 113.911 44.5763 112.329 44.0026C114.537 36.0118 122.024 33.2014 127.256 28.0732C122.835 29.6377 118.42 31.2023 114.004 32.7668C113.071 34.8587 112.196 36.8231 111.333 38.7816C111.408 32.4713 107.137 27.9283 104.628 21.7512C115.916 22.1742 126.631 17.046 137.675 21.4036C138.318 23.8025 138.886 25.8944 139.379 27.7371C136.777 46.9695 127.761 62.9684 116.021 78.0229C116.971 84.9185 118.437 91.8431 121.079 98.5359C120.558 92.6949 120.025 86.8597 119.422 80.0742C129.076 70.4493 134.476 57.3361 140.891 44.7327C146.471 48.2848 150.58 52.5265 150.916 59.5612C147.717 60.5637 143.731 62.1108 140.057 62.3194C139.929 62.3194 139.06 60.836 139.06 60.836L138.313 60.894L138.469 62.3252C138.469 62.3252 138.521 63.235 138.55 63.6928C142.769 64.6663 147.769 61.879 152.179 62.4701C154.537 64.6663 157.128 66.8219 159.428 69.2672C164.782 74.9517 169.685 80.9028 169.105 89.4847C168.856 93.1237 170.027 96.6063 171.064 99.9787C173.08 106.556 172.414 123.644 172.414 123.644L173.654 124.212C173.654 124.212 176.256 117.658 177.287 115.126C201.248 140.344 209.036 170.482 205.217 204.288C204.928 206.032 202.963 206.71 202.274 207.84C204.082 209.555 205.368 211.294 206.243 213.044C208.057 211.63 209.818 210.169 211.539 208.651C211.296 207.405 211.07 206.165 210.896 204.914C209.691 196.396 211.62 187.408 212.437 178.652C212.831 174.434 212.959 170.389 211.626 166.269V166.275ZM103.661 -7.9868L105.306 -6.88002C105.306 -6.88002 96.2841 6.07677 91.7179 12.1437C91.1674 11.686 89.487 11.489 88.9307 11.037C93.5896 5.06271 103.655 -7.9868 103.655 -7.9868H103.661ZM64.9236 99.6542L54.6555 99.4398L50.831 99.8339C50.831 99.8339 64.3731 103.212 67.6181 103.861C64.2804 107.089 57.4079 113.758 57.4079 113.758L36.1243 106.932C36.1243 106.932 36.1069 106.921 36.0663 106.892C36.0489 106.874 36.02 106.857 35.991 106.84C35.5274 106.509 33.8354 105.292 31.39 103.583C31.222 103.467 31.0482 103.34 30.8743 103.218C30.8222 103.183 30.7758 103.143 30.7237 103.114C30.2543 102.789 29.7675 102.447 29.2576 102.088C28.5796 101.607 27.8553 101.114 27.1078 100.605C26.7601 100.361 26.4009 100.118 26.0416 99.8686C26.0184 99.8512 25.9952 99.8339 25.9663 99.8165C25.578 99.5499 25.184 99.2834 24.7842 99.0052C23.8281 98.3504 22.843 97.6783 21.8289 97.0003C20.5135 96.1137 19.1634 95.2098 17.7958 94.3116C17.5757 94.1667 17.3555 94.0219 17.1353 93.877C16.6949 93.5873 16.2603 93.3033 15.8199 93.0136C15.5997 92.8745 15.3795 92.7296 15.1593 92.5848C14.7189 92.3008 14.2843 92.0227 13.8497 91.7388C13.1891 91.3157 12.5401 90.9043 11.8969 90.4987C11.6767 90.3654 11.4623 90.2264 11.2479 90.0931C11.0335 89.9656 10.8191 89.8265 10.6105 89.699C9.7587 89.1717 8.92427 88.6618 8.11302 88.1751C7.7074 87.9259 7.30177 87.6941 6.90774 87.4623C6.5137 87.2305 6.12547 87.0046 5.74302 86.7902C5.5518 86.6858 5.36058 86.5699 5.17515 86.4714C4.98972 86.3671 4.80429 86.257 4.61886 86.1585C6.49632 82.392 8.08984 79.205 9.9673 75.4501C10.4772 75.7919 11.0103 76.1512 11.5608 76.5221C12.0881 76.8813 12.6328 77.2522 13.1949 77.6346C14.3828 78.4459 15.6345 79.3035 16.9382 80.2016C17.5119 80.5957 18.0914 80.9955 18.6824 81.4011C20.699 82.7976 22.8024 84.2463 24.8885 85.695C25.8562 86.3671 26.8239 87.0335 27.7858 87.6999C28.3537 88.0939 28.9157 88.4822 29.472 88.8646C33.0067 91.3042 36.3271 93.593 39.01 95.401C39.6474 95.343 40.2732 95.2909 40.9048 95.2329C39.9255 94.4159 38.8651 93.5409 37.7352 92.6079C37.4512 92.382 37.1673 92.1444 36.8776 91.9068C36.4893 91.5939 36.1011 91.2694 35.7012 90.9449C35.2087 90.5393 34.6988 90.1221 34.1831 89.699C33.7658 89.363 33.3486 89.0269 32.9314 88.6792C32.4099 88.2504 31.8768 87.8158 31.3437 87.3812C31.2104 87.2769 31.0771 87.1668 30.9439 87.0625C30.4339 86.6453 29.9124 86.2223 29.3967 85.8051C28.2146 84.8489 27.0209 83.8754 25.833 82.9077C21.6956 79.5469 17.5583 76.186 14.0699 73.306C13.8033 73.0801 13.5426 72.8657 13.276 72.6455C12.7603 72.2109 12.2504 71.7937 11.7694 71.3938C15.7851 67.975 18.723 64.1274 22.8951 60.5695C23.7933 61.288 24.9348 62.1977 26.1749 63.1712C26.4878 63.4204 26.8123 63.6696 27.1368 63.9361C28.4753 64.9908 29.8719 66.0975 31.1525 67.1116C31.477 67.3665 31.7957 67.6157 32.097 67.8591C32.1723 67.917 32.2476 67.975 32.323 68.0329C32.8966 68.4907 33.4355 68.9137 33.9165 69.2904C34.1193 69.4526 34.3163 69.6033 34.496 69.7481C35.5216 70.5594 36.1648 71.0693 36.1648 71.0693L31.8942 78.8225L38.8535 86.286L46.288 79.657L64.9062 99.66L64.9236 99.6542ZM39.2128 81.6213L36.7501 79.1644C36.7501 79.1644 56.4808 52.5149 61.2498 51.7558C53.5661 62.1688 39.2186 81.6271 39.2186 81.6271L39.2128 81.6213ZM75.493 45.4513L72.9028 49.0671L66.9575 44.9993L65.9318 46.0365L70.6429 51.75L66.6909 52.1788L56.0983 42.1541L56.7473 40.8387L62.032 39.7146L64.2746 34.5863L68.6727 33.4332L71.4773 29.5045L76.9938 34.482L77.5559 43.6723L72.1205 40.097L71.4831 40.8445L75.4814 45.4513H75.493ZM78.2744 26.3L78.0716 26.4565L77.7644 20.9574L77.6717 19.4102L79.8216 17.892L87.285 16.0957L89.2031 15.6321C89.232 15.6785 89.4928 16.0088 90.6111 16.3854C86.4332 19.9317 79.526 25.3207 78.2686 26.2942L78.2744 26.3ZM107.479 43.626C104.68 44.7907 99.2393 39.9985 98.8975 39.6914C98.8047 39.7204 98.712 39.7609 98.6135 39.7899C98.7642 39.7262 98.8801 39.674 98.8801 39.674C98.8801 39.674 98.8801 39.674 98.8975 39.6914C101.476 38.7411 104.223 38.1906 106.68 36.5623C107.983 38.7295 107.96 41.0126 107.485 43.6202L107.479 43.626ZM105.834 31.5152C103.162 33.9489 101.088 37.5068 98.2021 39.3785C95.9248 40.8503 93.0275 41.0705 89.6956 40.323C87.5516 41.3197 87.3372 42.9074 86.7867 44.866C91.4919 44.669 94.9397 42.3048 98.3701 39.8884C98.3933 39.8768 98.4165 39.871 98.4397 39.8595C98.9264 41.5109 99.4248 43.1682 99.9695 45.0051C96.794 47.4678 92.5524 47.2476 90.0723 50.029C87.9514 48.9976 85.848 48.9165 84.04 47.1433C82.8927 43.5506 81.6295 39.5929 80.3952 35.7337C80.7719 31.9382 82.9217 28.9424 83.646 25.9002C92.0888 19.7521 101.748 22.5683 105.839 31.5094L105.834 31.5152ZM143.012 36.6376C145.498 38.2428 145.724 40.4215 146.599 42.5771C143.497 41.5148 142.301 39.535 143.012 36.6376ZM180.747 178.403L186.431 180.906C186.431 180.906 186.877 180.327 187.051 180.153C180.799 174.863 177.832 168.616 174.147 164.45C166.735 156.082 166.248 146.66 168.949 136.178C169.146 135.436 167.738 134.41 167.738 134.41L163.195 147.506L160.79 147.402C160.79 147.402 165.42 133.651 162.766 126.344C159.492 124.507 152.167 119.988 148.227 117.774C147.879 118.122 147.532 118.475 147.184 118.829C150.22 121.297 156.653 126.06 158.843 127.845C156.351 142.575 147.92 152.403 137.119 160.886C136.458 158.134 138.782 152.385 138.782 152.385L137.293 152.733C137.293 152.733 129.412 167.504 125.559 174.932C122.812 180.217 117.278 182.268 113.077 186.238H104.188C105.689 188.805 108.87 188.069 110.243 190.369C109.415 192.884 108.702 195.66 106.419 197.392C100.19 202.121 97.4836 208.877 95.1252 215.947C93.7055 220.194 92.1351 224.389 90.5474 228.66C92.4307 229.442 94.3487 230.184 96.2841 230.868C101.163 220.055 102.392 207.852 112.329 199.896C113.755 198.754 114.67 197.184 115.464 195.544C117.591 191.163 120.349 187.362 124.672 184.806C126.184 183.914 127.923 182.743 128.641 181.254C134.871 168.332 148.21 162.045 156.537 150.49C158.553 151.968 160.361 153.579 163.235 152.704C163.235 158.336 166.567 161.975 169.528 165.609C174.013 171.102 175.983 177.383 176.789 184.221C177.67 191.777 178.863 199.252 182.833 205.748C181.598 211.456 180.428 216.909 179.275 222.245C179.466 224.274 180.277 226.145 180.891 228.086C182.757 227.281 184.6 226.435 186.414 225.525C184.913 217.61 186.385 210.639 190.418 207.643C183.783 201.176 180.329 179.927 180.329 179.927L180.741 178.403H180.747Z" fill="black"/>
<path d="M105.309 -6.8737C105.309 -6.8737 96.287 6.08309 91.7208 12.1501C91.1703 11.6923 89.4899 11.4953 88.9336 11.0433C93.5925 5.06903 103.658 -7.98047 103.658 -7.98047L105.303 -6.8737H105.309Z" fill="white"/>
<path d="M90.6132 16.39L78.0678 26.4553L77.668 19.409L79.8178 17.8908L89.1993 15.6367L90.6132 16.39Z" fill="white"/>
<path d="M67.6204 103.86C64.2827 107.088 57.4103 113.757 57.4103 113.757L36.1266 106.931C36.1266 106.931 16.3843 92.7111 4.63281 86.1632C6.51027 82.3967 8.1038 79.2096 9.98126 75.4547C17.9894 80.8379 31.2128 90.1441 39.0239 95.3998C39.6613 95.3419 40.2872 95.2897 40.9188 95.2318C33.096 88.7012 19.8669 78.126 11.7892 71.3869C15.8049 67.968 18.7427 64.1204 22.9149 60.5625C27.0348 63.8423 36.1846 71.0682 36.1846 71.0682L31.9139 78.8214L38.8733 86.2849L46.3078 79.6558L64.9259 99.6589L54.6578 99.4445L50.8334 99.8385C50.8334 99.8385 64.3812 103.217 67.6204 103.866V103.86Z" fill="white"/>
<path d="M61.2439 51.7559C53.5602 62.1688 39.2127 81.6272 39.2127 81.6272L36.75 79.1702C36.75 79.1702 56.4807 52.5208 61.2497 51.7617L61.2439 51.7559Z" fill="white"/>
<path d="M71.4901 40.844L75.4884 45.4507L72.904 49.0724L66.9587 45.0045L65.933 46.036L70.6383 51.7553L66.6863 52.1783L56.0938 42.1536L56.7427 40.8382L62.0275 39.714L64.2758 34.5858L68.6739 33.4327L71.4785 29.5039L76.995 34.4815L77.5571 43.6776L72.1275 40.0965L71.4901 40.844Z" fill="white"/>
<path d="M146.592 42.5752C143.49 41.5129 142.295 39.5331 143.005 36.6357C145.491 38.2409 145.717 40.4196 146.592 42.5752Z" fill="white"/>
<path d="M107.476 43.6262C104.678 44.7909 99.2364 39.9987 98.8945 39.6916C101.473 38.7413 104.22 38.1908 106.677 36.5625C107.981 38.7297 107.957 41.0128 107.482 43.6204L107.476 43.6262Z" fill="white"/>
<path d="M105.827 31.5148C103.156 33.9485 101.081 37.5064 98.1956 39.3781C95.9183 40.8499 93.021 41.0701 89.6891 40.3226C87.545 41.3193 87.3306 42.907 86.7801 44.8656C91.4854 44.6686 94.9332 42.3044 98.3636 39.888C98.3868 39.8764 98.41 39.8706 98.4331 39.859C98.9199 41.5105 99.4182 43.1678 99.9629 45.0047C96.7875 47.4674 92.5458 47.2472 90.0657 50.0286C87.9449 48.9972 85.8414 48.916 84.0335 47.1429C82.8862 43.5502 81.6229 39.5925 80.3887 35.7333C80.7653 31.9378 82.9151 28.942 83.6395 25.8998C92.0822 19.7517 101.742 22.5679 105.833 31.509L105.827 31.5148Z" fill="white"/>
<path d="M202.268 207.845C202.952 206.721 204.922 206.037 205.212 204.293C209.031 170.487 201.249 140.349 177.282 115.131C176.251 117.663 173.649 124.217 173.649 124.217L172.409 123.649C172.409 123.649 173.081 106.561 171.059 99.9838C170.021 96.6114 168.851 93.1288 169.1 89.4898C169.68 80.9137 164.777 74.9626 159.423 69.2723C157.123 66.8328 154.527 64.6714 152.174 62.4752C147.764 61.8842 142.763 64.6714 138.545 63.6979C138.516 63.2401 138.464 62.3303 138.464 62.3303L138.307 60.8991L139.055 60.8411C139.055 60.8411 139.918 62.3245 140.052 62.3245C143.725 62.1159 147.706 60.5688 150.911 59.5663C150.575 52.5374 146.466 48.29 140.886 44.7378C134.466 57.3412 129.071 70.4544 119.417 80.0793C120.025 86.8648 120.553 92.7 121.074 98.541C118.438 91.8482 116.966 84.9236 116.015 78.028C127.761 62.9677 136.772 46.9746 139.374 27.7422C138.881 25.8995 138.313 23.8019 137.67 21.4087C126.625 17.0569 115.911 22.1793 104.623 21.7563C107.132 27.9392 111.403 32.4764 111.328 38.7868C112.191 36.8282 113.066 34.8638 113.999 32.7719C118.414 31.2074 122.83 29.6428 127.251 28.0783C122.013 33.2065 114.526 36.0169 112.324 44.0077C113.906 44.5814 115.668 43.6253 117.024 44.8306C93.6598 50.857 86.5092 56.9587 90.6176 81.5917C95.7632 88.7423 101.656 95.0526 109.189 99.9607C115.743 104.226 122.842 107.268 129.737 110.756H129.749L137.734 113.81L137.456 114.546L124.505 111.527C125.965 112.894 128.81 114.036 128.81 114.036L132.379 117.64L121.005 125.573L119.851 133.471L123.688 131.454L124.986 132.364C124.986 132.364 105.753 152.883 102.259 167.149C100.926 172.608 98.8691 177.748 95.0041 182.018C84.342 193.793 81.4157 208.233 78.7676 222.946C82.5515 225.061 86.4744 226.962 90.5133 228.642C92.101 224.371 93.6772 220.176 95.0911 215.929C97.4495 208.859 100.161 202.103 106.385 197.374C108.668 195.642 109.381 192.86 110.209 190.351C108.836 188.056 105.66 188.787 104.154 186.22H113.043C117.244 182.25 122.778 180.199 125.524 174.914C129.378 167.485 137.259 152.715 137.259 152.715L138.748 152.367C138.748 152.367 136.424 158.116 137.085 160.868C147.886 152.385 156.317 142.557 158.809 127.827C156.613 126.042 150.186 121.279 147.15 118.811C147.492 118.463 147.84 118.109 148.193 117.756C152.133 119.97 159.458 124.489 162.732 126.326C165.386 133.633 160.756 147.384 160.756 147.384L163.161 147.488L167.704 134.392C167.704 134.392 169.112 135.418 168.915 136.16C166.214 146.636 166.701 156.058 174.112 164.432C177.798 168.598 180.759 174.845 187.017 180.135C186.843 180.309 186.397 180.888 186.397 180.888L180.712 178.385L180.301 179.909C180.301 179.909 183.749 201.152 190.39 207.625C186.356 210.621 184.885 217.592 186.385 225.507C193.432 222.019 200.078 217.829 206.22 213.031C205.345 211.281 204.053 209.543 202.251 207.828L202.268 207.845ZM129.366 73.682L125.976 74.3252L133.376 67.7773L134.072 68.745L129.36 73.682H129.366ZM138.614 106.184L134.674 95.1627L133.834 87.5717L135.572 87.1082L139.681 106.178H138.614V106.184ZM166.568 102.499L165.838 102.731L161.283 99.9375L161.608 99.7926L164.418 100.459L165.386 100.245L166.342 99.0045L166.718 99.1262L166.568 102.499Z" fill="white"/>
<path d="M134.078 68.7421L129.372 73.6791L125.982 74.3223L133.382 67.7744L134.078 68.7421Z" fill="black"/>
<path d="M166.717 99.1266L166.566 102.499L165.836 102.731L161.281 99.9378L161.606 99.793L164.416 100.454L165.384 100.239L166.34 99.0049L166.717 99.1266Z" fill="black"/>
<path d="M139.685 106.184H138.619L134.678 95.1688L133.844 87.5778L135.582 87.1143L139.685 106.184Z" fill="black"/>
<path d="M169.83 28.6512C170.562 28.6512 171.252 28.7921 171.9 29.0737C172.548 29.3554 173.111 29.7356 173.59 30.2144C174.069 30.6932 174.449 31.2565 174.731 31.9043C175.012 32.5521 175.153 33.2422 175.153 33.9745V48.6768C175.153 49.4091 175.012 50.0991 174.731 50.7469C174.449 51.3947 174.069 51.958 173.59 52.4368C173.111 52.9156 172.548 53.2959 171.9 53.5775C171.252 53.8592 170.562 54 169.83 54H163.493C163.098 54 162.901 53.8028 162.901 53.4085V29.2427C162.901 28.8484 163.098 28.6512 163.493 28.6512H169.83ZM170.21 34.1857C170.21 33.9041 170.111 33.6647 169.914 33.4675C169.717 33.2703 169.478 33.1718 169.196 33.1718H167.844V49.4795H169.196C169.478 49.4795 169.717 49.3809 169.914 49.1837C170.111 48.9866 170.21 48.7472 170.21 48.4655V34.1857ZM188.297 49.057C188.691 49.057 188.889 49.2541 188.889 49.6485V53.4085C188.889 53.8028 188.691 54 188.297 54H179.129C178.735 54 178.538 53.8028 178.538 53.4085V29.2427C178.538 28.8484 178.735 28.6512 179.129 28.6512H188.297C188.691 28.6512 188.889 28.8484 188.889 29.2427V33.0028C188.889 33.3971 188.691 33.5942 188.297 33.5942H183.481V38.4105H187.663C188.058 38.4105 188.255 38.6077 188.255 39.002V42.762C188.255 43.1564 188.058 43.3535 187.663 43.3535H183.481V49.057H188.297ZM213.938 28.6512C214.332 28.6512 214.529 28.8484 214.529 29.2427V53.4085C214.529 53.8028 214.332 54 213.938 54H209.882C209.488 54 209.291 53.8028 209.291 53.4085V42.1706L206.502 52.2256C206.446 52.3664 206.376 52.4368 206.291 52.4368C206.207 52.4368 206.136 52.3664 206.08 52.2256L203.292 42.1706V53.4085C203.292 53.8028 203.094 54 202.7 54H198.644C198.25 54 198.053 53.8028 198.053 53.4085V29.2427C198.053 28.8484 198.25 28.6512 198.644 28.6512H202.235C202.404 28.6512 202.545 28.7217 202.658 28.8625C202.799 28.9751 202.897 29.1019 202.954 29.2427L206.291 42.2551L209.629 29.2427C209.685 29.1019 209.77 28.9751 209.882 28.8625C210.023 28.7217 210.178 28.6512 210.347 28.6512H213.938ZM230.603 53.4085C230.66 53.8028 230.491 54 230.096 54H226.252C225.886 54 225.675 53.8028 225.618 53.4085L225.28 49.2682H222.661L222.323 53.4085C222.267 53.8028 222.055 54 221.689 54H217.845C217.45 54 217.281 53.8028 217.338 53.4085L220.506 29.2427C220.563 28.8484 220.788 28.6512 221.182 28.6512H226.759C227.153 28.6512 227.379 28.8484 227.435 29.2427L230.603 53.4085ZM224.942 44.5365L224.14 35.1997H223.802L222.999 44.5365H224.942ZM246.339 28.6512C246.733 28.6512 246.93 28.8484 246.93 29.2427V53.4085C246.93 53.8028 246.733 54 246.339 54H243.635C243.466 54 243.297 53.9437 243.128 53.831C242.987 53.7183 242.888 53.5916 242.832 53.4508L238.354 42.4241V53.4085C238.354 53.8028 238.156 54 237.762 54H234.002C233.608 54 233.411 53.8028 233.411 53.4085V29.2427C233.411 28.8484 233.608 28.6512 234.002 28.6512H236.79C236.959 28.6512 237.114 28.7076 237.255 28.8202C237.424 28.9329 237.537 29.0596 237.593 29.2005L241.987 41.4946V29.2427C241.987 28.8484 242.184 28.6512 242.578 28.6512H246.339ZM272.194 28.6512C272.588 28.6512 272.785 28.8484 272.785 29.2427V53.4085C272.785 53.8028 272.588 54 272.194 54H268.138C267.744 54 267.547 53.8028 267.547 53.4085V42.1706L264.758 52.2256C264.702 52.3664 264.632 52.4368 264.547 52.4368C264.463 52.4368 264.392 52.3664 264.336 52.2256L261.547 42.1706V53.4085C261.547 53.8028 261.35 54 260.956 54H256.9C256.506 54 256.309 53.8028 256.309 53.4085V29.2427C256.309 28.8484 256.506 28.6512 256.9 28.6512H260.491C260.66 28.6512 260.801 28.7217 260.914 28.8625C261.055 28.9751 261.153 29.1019 261.209 29.2427L264.547 42.2551L267.885 29.2427C267.941 29.1019 268.025 28.9751 268.138 28.8625C268.279 28.7217 268.434 28.6512 268.603 28.6512H272.194ZM286.367 49.057C286.761 49.057 286.958 49.2541 286.958 49.6485V53.4085C286.958 53.8028 286.761 54 286.367 54H277.199C276.805 54 276.608 53.8028 276.608 53.4085V29.2427C276.608 28.8484 276.805 28.6512 277.199 28.6512H286.367C286.761 28.6512 286.958 28.8484 286.958 29.2427V33.0028C286.958 33.3971 286.761 33.5942 286.367 33.5942H281.551V38.4105H285.733C286.127 38.4105 286.325 38.6077 286.325 39.002V42.762C286.325 43.1564 286.127 43.3535 285.733 43.3535H281.551V49.057H286.367ZM301.199 28.6512C301.593 28.6512 301.791 28.8484 301.791 29.2427V33.0028C301.791 33.3971 301.593 33.5942 301.199 33.5942H298.199V53.4085C298.199 53.8028 298.002 54 297.608 54H293.848C293.707 54 293.566 53.9437 293.425 53.831C293.313 53.7183 293.256 53.5775 293.256 53.4085V33.5942H290.299C289.905 33.5942 289.708 33.3971 289.708 33.0028V29.2427C289.708 28.8484 289.905 28.6512 290.299 28.6512H301.199Z" fill="white"/>
<path d="M197.83 67.6512C198.562 67.6512 199.252 67.7921 199.9 68.0737C200.548 68.3554 201.111 68.7356 201.59 69.2144C202.069 69.6932 202.449 70.2565 202.731 70.9043C203.012 71.5521 203.153 72.2422 203.153 72.9745V87.6768C203.153 88.4091 203.012 89.0991 202.731 89.7469C202.449 90.3947 202.069 90.958 201.59 91.4368C201.111 91.9156 200.548 92.2959 199.9 92.5775C199.252 92.8592 198.562 93 197.83 93H191.493C191.098 93 190.901 92.8028 190.901 92.4085V68.2427C190.901 67.8484 191.098 67.6512 191.493 67.6512H197.83ZM198.21 73.1857C198.21 72.9041 198.111 72.6647 197.914 72.4675C197.717 72.2703 197.478 72.1718 197.196 72.1718H195.844V88.4795H197.196C197.478 88.4795 197.717 88.3809 197.914 88.1837C198.111 87.9866 198.21 87.7472 198.21 87.4655V73.1857ZM216.297 88.057C216.691 88.057 216.889 88.2541 216.889 88.6485V92.4085C216.889 92.8028 216.691 93 216.297 93H207.129C206.735 93 206.538 92.8028 206.538 92.4085V68.2427C206.538 67.8484 206.735 67.6512 207.129 67.6512H216.297C216.691 67.6512 216.889 67.8484 216.889 68.2427V72.0028C216.889 72.3971 216.691 72.5942 216.297 72.5942H211.481V77.4105H215.663C216.058 77.4105 216.255 77.6077 216.255 78.002V81.762C216.255 82.1564 216.058 82.3535 215.663 82.3535H211.481V88.057H216.297ZM238.136 67.6512C238.53 67.6512 238.727 67.8484 238.727 68.2427V92.4085C238.727 92.8028 238.53 93 238.136 93H234.376C233.981 93 233.784 92.8028 233.784 92.4085V82.8605H230.996V92.4085C230.996 92.8028 230.799 93 230.404 93H226.644C226.25 93 226.053 92.8028 226.053 92.4085V68.2427C226.053 67.8484 226.25 67.6512 226.644 67.6512H230.404C230.799 67.6512 230.996 67.8484 230.996 68.2427V77.9175H233.784V68.2427C233.784 67.8484 233.981 67.6512 234.376 67.6512H238.136ZM254.766 92.4085C254.823 92.8028 254.654 93 254.26 93H250.415C250.049 93 249.838 92.8028 249.781 92.4085L249.443 88.2682H246.824L246.486 92.4085C246.43 92.8028 246.218 93 245.852 93H242.008C241.613 93 241.444 92.8028 241.501 92.4085L244.669 68.2427C244.726 67.8484 244.951 67.6512 245.345 67.6512H250.922C251.316 67.6512 251.542 67.8484 251.598 68.2427L254.766 92.4085ZM249.105 83.5365L248.303 74.1997H247.965L247.162 83.5365H249.105ZM273.459 67.6512C273.853 67.6512 274.05 67.8484 274.05 68.2427V92.4085C274.05 92.8028 273.853 93 273.459 93H269.403C269.009 93 268.812 92.8028 268.812 92.4085V81.1706L266.023 91.2256C265.967 91.3664 265.897 91.4368 265.812 91.4368C265.728 91.4368 265.657 91.3664 265.601 91.2256L262.812 81.1706V92.4085C262.812 92.8028 262.615 93 262.221 93H258.165C257.771 93 257.574 92.8028 257.574 92.4085V68.2427C257.574 67.8484 257.771 67.6512 258.165 67.6512H261.756C261.925 67.6512 262.066 67.7217 262.179 67.8625C262.32 67.9751 262.418 68.1019 262.474 68.2427L265.812 81.2551L269.15 68.2427C269.206 68.1019 269.29 67.9751 269.403 67.8625C269.544 67.7217 269.699 67.6512 269.868 67.6512H273.459ZM287.632 88.057C288.026 88.057 288.223 88.2541 288.223 88.6485V92.4085C288.223 92.8028 288.026 93 287.632 93H278.464C278.07 93 277.872 92.8028 277.872 92.4085V68.2427C277.872 67.8484 278.07 67.6512 278.464 67.6512H287.632C288.026 67.6512 288.223 67.8484 288.223 68.2427V72.0028C288.223 72.3971 288.026 72.5942 287.632 72.5942H282.815V77.4105H286.998C287.392 77.4105 287.59 77.6077 287.59 78.002V81.762C287.59 82.1564 287.392 82.3535 286.998 82.3535H282.815V88.057H287.632ZM296.761 92.4085C296.761 92.8028 296.549 93 296.127 93H292.367C292.001 93 291.818 92.8028 291.818 92.4085V68.2427C291.818 67.8484 292.015 67.6512 292.409 67.6512H298.746C299.479 67.6512 300.169 67.7921 300.816 68.0737C301.464 68.3554 302.028 68.7356 302.506 69.2144C302.985 69.6932 303.365 70.2565 303.647 70.9043C303.929 71.5521 304.07 72.2422 304.07 72.9745V78.171C304.07 79.2131 303.76 80.1566 303.14 81.0016C302.52 81.8184 301.774 82.4521 300.901 82.9027L304.914 92.4085C304.999 92.8028 304.858 93 304.492 93H300.647C300.478 93 300.309 92.9437 300.14 92.831C300 92.7183 299.901 92.5775 299.845 92.4085L296.761 84.5927V92.4085ZM296.761 78.9737H298.113C298.394 78.9737 298.634 78.8751 298.831 78.678C299.028 78.4808 299.127 78.2414 299.127 77.9597V73.1857C299.127 72.9041 299.028 72.6647 298.831 72.4675C298.634 72.2703 298.394 72.1718 298.113 72.1718H296.761V78.9737Z" fill="white"/>
</svg>
